<svg id="coins" enable-background="new 0 0 300 300" height="512" viewBox="0 0 300 300" width="512" xmlns="http://www.w3.org/2000/svg"><path d="m60.326 64.5c0-7.719-6.281-14-14-14s-14 6.281-14 14 6.281 14 14 14 14-6.281 14-14zm-20 0c0-3.309 2.691-6 6-6s6 2.691 6 6-2.691 6-6 6-6-2.691-6-6z"/><path d="m214.326 106.5c7.719 0 14-6.281 14-14s-6.281-14-14-14-14 6.281-14 14 6.281 14 14 14zm0-20c3.309 0 6 2.691 6 6s-2.691 6-6 6-6-2.691-6-6 2.692-6 6-6z"/><path d="m227.658 48.829c2.391-.736 3.733-3.27 2.997-5.661-.735-2.391-3.27-3.733-5.661-2.998-2.391.736-3.733 3.27-2.997 5.661.735 2.392 3.27 3.734 5.661 2.998z"/><path d="m67.658 36.829c2.391-.736 3.733-3.27 2.997-5.661-.735-2.391-3.27-3.733-5.661-2.998-2.391.736-3.733 3.27-2.997 5.661.735 2.392 3.27 3.734 5.661 2.998z"/><path d="m40.994 192.171c-2.391.736-3.733 3.27-2.997 5.661.735 2.391 3.27 3.733 5.661 2.997s3.733-3.27 2.997-5.661c-.735-2.391-3.27-3.733-5.661-2.997z"/><path d="m261.982 124.5 4.52-4.52c1.562-1.562 1.562-4.094 0-5.656s-4.094-1.562-5.656 0l-4.52 4.52-4.52-4.52c-1.562-1.562-4.094-1.562-5.656 0s-1.562 4.094 0 5.656l4.52 4.52-4.52 4.52c-1.562 1.562-1.562 4.094 0 5.656.781.781 1.805 1.172 2.828 1.172s2.047-.391 2.828-1.172l4.52-4.52 4.52 4.52c.781.781 1.805 1.172 2.828 1.172s2.047-.391 2.828-1.172c1.562-1.562 1.562-4.094 0-5.656z"/><path d="m138.15 46.676c.781.781 1.805 1.172 2.828 1.172s2.047-.391 2.828-1.172l4.52-4.52 4.52 4.52c.781.781 1.805 1.172 2.828 1.172s2.047-.391 2.828-1.172c1.562-1.562 1.562-4.094 0-5.656l-4.52-4.52 4.52-4.52c1.562-1.562 1.562-4.094 0-5.656s-4.094-1.562-5.656 0l-4.52 4.52-4.52-4.52c-1.562-1.562-4.094-1.562-5.656 0s-1.562 4.094 0 5.656l4.52 4.52-4.52 4.52c-1.562 1.562-1.562 4.093 0 5.656z"/><path d="m70.502 226.324c-1.562-1.562-4.094-1.562-5.656 0l-4.52 4.52-4.52-4.52c-1.562-1.562-4.094-1.562-5.656 0s-1.562 4.094 0 5.656l4.52 4.52-4.52 4.52c-1.562 1.562-1.562 4.094 0 5.656.781.781 1.805 1.172 2.828 1.172s2.047-.391 2.828-1.172l4.52-4.52 4.52 4.52c.781.781 1.805 1.172 2.828 1.172s2.047-.391 2.828-1.172c1.562-1.562 1.562-4.094 0-5.656l-4.52-4.52 4.52-4.52c1.562-1.562 1.562-4.093 0-5.656z"/><path d="m190.926 145.845c.195-2.224.341-4.462.341-6.736 0-42.242-34.367-76.609-76.609-76.609s-76.609 34.367-76.609 76.609c0 41.455 33.119 75.243 74.277 76.491v33.997c0 16.402 34.004 25.25 66 25.25s66-8.848 66-25.25v-78.922c0-14.747-26.547-23.018-53.4-24.83zm45.4 78.499c0 7.203-22.066 17.25-58 17.25-35.936 0-58-10.047-58-17.25v-8.912c3.622-.267 7.18-.748 10.646-1.503.166.094.292.234.475.305 12.111 4.723 29.402 7.434 47.441 7.434 22.326 0 45.585-4.4 57.438-12.714zm0-27.926c0 7.203-21.852 17.25-57.438 17.25-12.617 0-24.758-1.378-34.771-3.858 8.265-3.457 15.748-8.371 22.251-14.342 4.106.287 8.298.458 12.52.458 22.326 0 45.585-4.4 57.438-12.714zm0-25.742c0 7.203-21.852 17.25-57.438 17.25-1.724 0-3.438-.05-5.149-.101 7.972-9.651 13.597-21.291 16.083-34.041 30.335 1.927 46.504 10.991 46.504 16.892zm-190.277-31.567c0-37.832 30.777-68.609 68.609-68.609s68.609 30.777 68.609 68.609-30.777 68.609-68.609 68.609-68.609-30.777-68.609-68.609zm132.277 127.739c-35.936 0-58-10.047-58-17.25v-12.769c11.931 8.346 35.437 12.765 58 12.765s46.069-4.419 58-12.765v12.769c0 7.203-22.066 17.25-58 17.25z"/><path d="m172.932 139.109c0-32.133-26.141-58.273-58.273-58.273s-58.273 26.141-58.273 58.273 26.141 58.273 58.273 58.273 58.273-26.14 58.273-58.273zm-108.547 0c0-27.723 22.553-50.273 50.273-50.273s50.273 22.551 50.273 50.273-22.553 50.273-50.273 50.273-50.273-22.55-50.273-50.273z"/><path d="m120.668 168.852v-4.034c6.132-1.875 10.633-7.521 10.633-14.259 0-5.805-3.373-11.195-8.596-13.742l-2.037-.992v-12.081c1.529.567 2.633 2.01 2.633 3.732 0 2.211 1.791 4 4 4s4-1.789 4-4c0-6.153-4.665-11.178-10.633-11.872v-3.456c0-2.211-1.791-4-4-4s-4 1.789-4 4v3.387c-6.294.368-11.316 5.555-11.316 11.941 0 4.766 2.768 9.191 7.053 11.277l4.264 2.076v15.642c-1.982-1.232-3.316-3.412-3.316-5.913v-1.715c0-2.211-1.791-4-4-4s-4 1.789-4 4v1.715c0 6.989 4.832 12.828 11.316 14.471v3.822c0 2.211 1.791 4 4 4s3.999-1.789 3.999-3.999zm2.633-18.293c0 2.198-1.041 4.137-2.633 5.416v-10.971c1.625 1.367 2.633 3.388 2.633 5.555zm-11.397-19c-1.551-.754-2.553-2.355-2.553-4.082 0-1.965 1.448-3.53 3.316-3.871v8.325z"/></svg>