<?xml version="1.0" standalone="no"?>
<!DOCTYPE svg PUBLIC "-//W3C//DTD SVG 20010904//EN"
 "http://www.w3.org/TR/2001/REC-SVG-20010904/DTD/svg10.dtd">
<svg version="1.0" xmlns="http://www.w3.org/2000/svg"
 width="297.000000pt" height="170.000000pt" viewBox="0 0 297.000000 170.000000"
 preserveAspectRatio="xMidYMid meet">

<g transform="translate(0.000000,170.000000) scale(0.100000,-0.100000)"
fill="#000000" stroke="none">
<path d="M0 1535 c0 -134 3 -165 14 -165 7 0 16 9 19 20 4 15 14 20 37 20 l33
0 -35 -28 c-31 -24 -34 -30 -23 -45 7 -9 17 -17 22 -17 14 0 44 -35 36 -43 -3
-4 -28 -7 -55 -7 l-48 0 0 -54 c0 -34 5 -56 13 -59 9 -4 9 -6 0 -6 -10 -1 -13
-123 -13 -576 l0 -575 1485 0 1485 0 0 320 c0 353 4 329 -60 311 -18 -5 -30
-2 -42 12 -13 14 -26 18 -53 14 -25 -3 -34 -2 -27 5 14 14 2 50 -14 44 -8 -3
-14 -1 -14 3 0 5 -3 17 -6 25 -5 12 -2 15 12 9 10 -4 15 -2 11 4 -8 13 29 45
68 60 36 14 92 15 100 2 21 -33 25 30 25 441 l0 450 -1485 0 -1485 0 0 -165z
m1470 69 c0 -24 -7 -26 -95 -38 -16 -2 -2 -2 33 -1 62 3 62 2 62 -25 0 -35
-31 -64 -59 -55 -28 9 -27 33 2 38 19 4 18 4 -5 6 -21 1 -28 -4 -28 -17 0 -10
5 -23 12 -30 31 -31 88 3 88 54 0 52 12 94 26 94 8 0 14 -10 14 -22 1 -27 22
-58 41 -59 10 0 11 -2 2 -6 -7 -2 -13 -9 -13 -14 0 -6 4 -7 10 -4 6 4 8 -7 4
-27 -4 -23 -3 -29 4 -19 8 11 11 9 17 -8 5 -17 12 -20 33 -15 21 4 24 3 12 -5
-8 -6 -12 -11 -8 -11 15 0 64 25 81 42 10 10 25 18 35 18 13 -1 9 -7 -13 -25
-16 -14 -32 -25 -35 -25 -3 0 -11 -9 -18 -21 -8 -12 -9 -18 -3 -14 6 3 11 1
11 -5 0 -7 16 -10 42 -8 34 2 44 7 47 23 2 11 8 23 15 28 8 5 7 10 -4 17 -13
8 -12 10 3 10 22 0 38 -39 26 -62 -5 -9 -9 -21 -9 -26 0 -18 33 -23 50 -7 9 8
22 15 28 15 20 0 13 28 -8 32 -14 2 -17 7 -11 17 8 12 12 13 25 1 9 -7 19 -10
23 -7 9 10 33 -13 33 -32 -1 -14 -2 -14 -11 2 -16 27 -25 20 -21 -18 2 -19 8
-35 14 -35 5 0 6 -5 2 -11 -4 -7 7 -4 24 6 17 10 33 29 37 42 6 27 33 31 42 6
8 -24 64 -83 79 -83 6 0 17 -7 24 -15 7 -8 16 -13 20 -10 5 3 11 1 14 -4 4 -5
-2 -12 -11 -14 -13 -3 -11 -5 6 -6 13 0 39 9 59 21 30 18 38 19 55 8 15 -9 22
-10 25 -1 2 6 8 11 13 11 6 0 7 -4 4 -10 -3 -5 -1 -10 6 -10 7 0 9 8 6 21 -5
20 -5 20 13 4 11 -10 17 -21 15 -26 -3 -4 3 -10 12 -12 10 -3 -4 -2 -32 0 -27
3 -55 10 -62 15 -8 7 -22 3 -41 -10 -15 -12 -51 -29 -80 -40 -79 -30 -132 -65
-184 -120 -44 -46 -61 -82 -40 -82 5 0 14 -12 21 -26 10 -22 16 -25 39 -19 15
3 34 13 43 21 10 9 37 14 73 14 31 0 55 4 52 9 -3 5 16 16 42 26 51 19 72 33
72 46 0 14 -33 5 -66 -18 -42 -30 -69 -33 -70 -8 0 11 -4 28 -8 38 -13 28 0
44 38 49 33 4 34 3 20 -13 -14 -16 -13 -17 9 -15 14 0 23 4 20 9 -2 4 2 7 11
7 8 0 17 -6 19 -12 4 -9 6 -8 6 3 1 8 -4 20 -11 27 -8 8 -9 12 -1 12 9 0 73
-82 73 -94 0 -1 -10 -2 -21 -2 -12 1 -23 -5 -25 -12 -1 -7 0 -8 2 -3 6 11 44
2 44 -10 0 -5 6 -9 14 -9 8 0 18 -5 22 -12 5 -7 3 -8 -6 -3 -7 4 -15 2 -20 -4
-5 -9 -11 -8 -24 4 -20 20 -76 12 -76 -11 0 -9 -4 -13 -9 -10 -5 3 -13 0 -19
-7 -14 -17 -11 -47 5 -47 7 0 13 -6 13 -12 0 -7 3 -24 7 -38 6 -22 5 -23 -8
-10 -8 8 -24 31 -37 50 -12 19 -22 29 -22 23 0 -7 -6 -13 -14 -13 -7 0 -25 -9
-40 -21 -14 -11 -30 -17 -36 -14 -5 3 -10 1 -10 -4 0 -17 25 -13 51 7 29 23
59 34 59 23 0 -4 -12 -13 -27 -20 -22 -10 -24 -14 -12 -23 11 -8 11 -9 -3 -4
-22 7 -50 -3 -42 -15 18 -30 -82 34 -119 75 -53 60 -58 67 -52 75 3 5 2 23 -1
41 -4 19 -10 27 -14 20 -4 -7 -10 5 -13 27 -8 49 -58 93 -105 93 -11 0 -25 7
-32 15 -7 8 -20 15 -29 15 -14 0 -14 -2 -1 -10 13 -8 13 -11 1 -22 -8 -7 -11
-8 -8 -2 4 7 0 17 -8 24 -19 16 -33 4 -17 -12 9 -9 5 -15 -19 -25 -17 -7 -39
-13 -48 -13 -17 1 -57 48 -47 57 3 4 28 7 55 7 27 1 53 4 56 8 4 4 14 4 22 1
13 -5 13 -3 2 15 -29 47 -144 68 -182 35 -11 -10 -17 -13 -14 -6 8 13 -30 6
-39 -8 -3 -5 2 -6 10 -3 14 5 16 -4 15 -57 -1 -74 -15 -182 -18 -134 -1 17 -6
37 -12 45 -9 12 -10 11 -6 -7 3 -13 2 -25 -3 -28 -10 -6 -22 128 -22 236 0 47
-4 76 -10 73 -5 -3 -9 -27 -8 -53 1 -25 1 -102 1 -171 -2 -116 -3 -123 -17
-100 -15 25 -15 25 -9 -12 6 -41 -8 -78 -29 -78 -8 0 -19 -6 -26 -14 -6 -8
-18 -12 -26 -9 -8 3 -14 -1 -14 -10 0 -11 6 -13 22 -9 21 5 21 5 3 -19 -10
-13 -44 -43 -74 -66 -47 -35 -57 -39 -62 -25 -4 10 -2 19 3 20 11 5 41 62 35
69 -3 2 -8 -4 -11 -14 -3 -10 -21 -27 -38 -38 -33 -18 -33 -18 -16 2 10 11 21
42 24 69 l7 49 -26 -24 c-14 -12 -30 -20 -35 -17 -6 3 -8 -2 -5 -13 3 -10 0
-22 -6 -25 -6 -4 -13 8 -17 29 l-6 36 -34 -26 c-19 -14 -34 -22 -34 -18 0 16
43 79 67 99 21 17 24 24 15 41 -8 14 -8 23 0 31 9 9 9 12 -1 12 -8 0 -11 11
-9 33 l3 32 -50 -2 c-40 -2 -45 0 -27 7 24 10 22 30 -2 30 -21 0 -36 24 -25
40 8 13 10 13 19 0 7 -11 10 -11 10 -2 0 7 4 11 9 8 5 -4 11 -2 13 3 1 5 33
11 71 14 65 5 117 26 117 48 0 6 -5 7 -12 3 -7 -4 -8 -3 -4 4 4 7 14 12 22 12
36 0 53 50 71 201 l5 46 79 0 c75 -1 79 -2 79 -23z m499 -48 c-2 -2 -20 -6
-39 -10 -25 -4 -31 -3 -20 4 14 9 69 15 59 6z m94 -3 c-13 -2 -33 -2 -45 0
-13 2 -3 4 22 4 25 0 35 -2 23 -4z m187 -56 c30 -17 61 -37 68 -44 18 -18 32
-7 32 25 0 21 2 24 10 12 5 -8 10 -30 10 -49 l0 -35 31 30 31 29 -8 -30 c-4
-16 -11 -38 -16 -48 -20 -38 20 -132 53 -125 9 2 15 -8 16 -27 1 -20 0 -23 -4
-7 -2 12 -9 20 -14 16 -13 -8 -44 25 -54 57 -4 13 -11 29 -15 34 -4 6 -11 25
-15 43 -3 17 -11 32 -17 32 -6 0 -8 6 -5 13 3 8 -3 13 -18 12 -24 0 -48 -15
-25 -15 10 0 10 -4 -2 -17 -11 -12 -13 -25 -8 -38 14 -33 11 -45 -10 -45 -11
0 -20 4 -20 10 0 5 8 7 18 4 15 -5 15 -4 2 8 -9 7 -14 21 -12 31 2 9 -2 17 -8
17 -12 0 -30 -41 -23 -52 2 -5 -12 -8 -31 -8 -19 0 -38 -4 -41 -10 -11 -17
-37 -11 -33 8 2 12 11 16 28 14 26 -3 94 44 85 58 -3 5 6 7 20 5 31 -3 31 -1
3 25 -12 11 -17 20 -10 20 6 0 14 -5 17 -10 4 -6 11 -8 16 -4 12 7 -13 26 -96
72 -33 18 -49 30 -35 26 14 -3 50 -20 80 -37z m-27 -84 c-13 -2 -33 -2 -45 0
-13 2 -3 4 22 4 25 0 35 -2 23 -4z m-1958 -39 c25 -14 43 -30 40 -34 -3 -5 0
-12 6 -16 7 -4 9 -3 6 2 -3 6 9 16 26 24 27 12 37 11 75 -3 39 -13 48 -14 66
-2 14 10 43 13 86 11 68 -3 118 -21 160 -56 l25 -21 -25 13 c-28 14 -55 19
-122 21 -25 1 -44 5 -41 9 2 5 -6 8 -18 8 -16 0 -20 -5 -17 -18 3 -11 0 -19
-8 -19 -8 0 -14 4 -14 9 0 17 -34 7 -55 -16 -13 -14 -25 -22 -28 -20 -3 3 -8
-4 -12 -15 -10 -33 -36 -40 -75 -19 l-35 18 48 -6 c44 -6 47 -5 47 16 0 24 21
50 42 50 10 0 10 3 -2 9 -8 6 -18 7 -22 5 -4 -3 -8 0 -8 5 0 6 -7 11 -15 11
-8 0 -15 -5 -15 -11 0 -5 4 -8 8 -5 10 6 9 -25 -2 -42 -4 -6 -15 -12 -24 -12
-16 1 -16 1 1 11 9 5 17 15 17 21 0 7 -4 7 -12 0 -13 -10 -40 -15 -68 -13 -13
1 -13 2 0 11 12 7 8 12 -18 21 -19 6 -55 22 -80 35 -26 13 -52 24 -59 24 -6 0
-14 4 -17 9 -3 5 16 9 44 9 35 1 63 -7 95 -24z m-80 -86 c-6 -31 -25 -48 -25
-22 0 11 5 25 12 32 16 16 18 15 13 -10z m784 13 c11 -7 6 -14 -22 -32 -20
-13 -37 -29 -37 -36 0 -7 -8 -17 -17 -22 -14 -8 -4 -10 40 -11 69 0 68 -16 -1
-25 -26 -3 -57 -10 -69 -15 -20 -8 -31 1 -37 30 -1 3 -10 18 -20 33 -22 32
-24 28 34 61 45 26 103 33 129 17z m-274 -21 c-3 -5 3 -10 14 -10 12 0 21 -4
21 -9 0 -7 -16 -8 -54 -2 -5 0 -3 8 4 16 14 17 24 20 15 5z m90 -52 c3 -38 -2
-51 -16 -42 -6 4 -5 11 2 20 9 11 9 18 1 26 -7 7 -12 21 -12 32 0 33 22 2 25
-36z m-471 35 c-5 -5 -12 -12 -16 -18 -4 -6 -8 -2 -8 8 0 9 7 17 17 17 9 0 12
-3 7 -7z m2546 -68 c5 3 10 -1 10 -10 0 -9 5 -13 10 -10 6 3 10 1 10 -4 0 -13
-2 -13 -34 -1 -30 11 -34 3 -8 -16 16 -12 15 -14 -7 -38 -14 -14 -19 -26 -12
-26 7 0 9 -5 6 -10 -11 -17 -27 1 -21 24 5 21 5 21 -10 1 -9 -11 -20 -19 -25
-17 -5 1 -9 -4 -10 -10 -3 -43 -7 -60 -18 -71 -13 -13 -10 16 10 77 5 17 5 32
1 35 -5 3 -9 14 -9 24 0 15 15 22 39 18 4 0 5 5 2 13 -3 7 2 19 11 26 8 7 15
22 15 34 1 16 4 14 15 -12 8 -18 19 -31 25 -27z m-2119 -21 c20 -10 29 -20 25
-30 -3 -9 -1 -25 5 -37 9 -19 7 -18 -10 3 -12 15 -16 27 -9 31 7 4 7 9 -1 13
-6 4 -16 4 -23 0 -7 -4 -8 -3 -4 4 10 17 -34 15 -77 -3 -30 -12 -35 -20 -41
-60 -4 -25 -11 -43 -16 -40 -9 6 2 60 19 92 23 44 78 55 132 27z m1724 6 c3
-6 -1 -7 -9 -4 -18 7 -21 14 -7 14 6 0 13 -4 16 -10z m-2105 -20 c0 -5 -4 -10
-10 -10 -5 0 -10 5 -10 10 0 6 5 10 10 10 6 0 10 -4 10 -10z m2178 -15 c-3 -3
-9 2 -12 12 -6 14 -5 15 5 6 7 -7 10 -15 7 -18z m-2503 -4 c-3 -5 3 -12 12
-14 11 -3 8 -5 -9 -6 -29 -1 -38 13 -15 22 18 8 19 8 12 -2z m145 -1 c0 -5 -4
-10 -10 -10 -5 0 -10 5 -10 10 0 6 5 10 10 10 6 0 10 -4 10 -10z m480 -23 c0
-7 -9 -20 -20 -30 -21 -18 -27 -7 -14 27 7 19 34 21 34 3z m304 -3 c3 -8 2
-12 -4 -9 -6 3 -10 -2 -11 -12 0 -11 -3 -13 -6 -5 -5 13 2 42 11 42 2 0 7 -7
10 -16z m-44 -28 c0 -8 -14 -27 -31 -43 -17 -15 -34 -37 -39 -48 -7 -17 -9
-17 -9 -3 -1 10 15 34 34 54 19 19 35 40 35 45 0 5 2 9 5 9 3 0 5 -6 5 -14z
m1197 -2 c-3 -3 -12 -4 -19 -1 -8 3 -5 6 6 6 11 1 17 -2 13 -5z m-222 -24 c3
-5 -1 -10 -9 -10 -9 0 -16 5 -16 10 0 6 4 10 9 10 6 0 13 -4 16 -10z m-1265
-31 c0 -11 -4 -17 -10 -14 -5 3 -10 15 -10 26 0 11 5 17 10 14 6 -3 10 -15 10
-26z m40 16 c0 -8 -4 -15 -10 -15 -5 0 -7 7 -4 15 4 8 8 15 10 15 2 0 4 -7 4
-15z m1425 5 c-27 -12 -43 -12 -25 0 8 5 22 9 30 9 10 0 8 -3 -5 -9z m306 -7
c13 -15 12 -15 -8 -4 -24 12 -29 21 -14 21 5 0 15 -7 22 -17z m44 -13 c-5 -16
0 -23 24 -31 21 -7 31 -18 31 -31 0 -13 -5 -18 -14 -15 -10 4 -13 1 -9 -9 3
-7 10 -14 16 -14 6 0 7 -3 4 -7 -10 -10 -77 58 -70 70 4 6 0 8 -8 5 -8 -3 -30
3 -49 13 l-35 18 35 -5 c23 -4 42 0 55 10 26 20 28 20 20 -4z m495 10 c-8 -5
-19 -10 -25 -10 -5 0 -3 5 5 10 8 5 20 10 25 10 6 0 3 -5 -5 -10z m-2133 -37
c-3 -10 -5 -4 -5 12 0 17 2 24 5 18 2 -7 2 -21 0 -30z m593 7 c-7 -12 -8 -20
-3 -17 4 3 16 -5 25 -18 16 -21 16 -23 -7 -43 -13 -11 -26 -18 -29 -15 -3 4
-6 -3 -6 -15 0 -12 -6 -22 -12 -22 -9 0 -8 -4 2 -10 8 -5 22 -7 32 -4 9 2 19
0 22 -5 8 -13 -29 -24 -53 -16 -11 3 -23 16 -27 28 -4 12 -12 26 -18 30 -8 6
-8 10 2 14 6 2 12 16 12 29 0 14 14 39 32 59 36 37 46 39 28 5z m-804 -6 c-4
-9 -9 -15 -11 -12 -3 3 -3 13 1 22 4 9 9 15 11 12 3 -3 3 -13 -1 -22z m74 12
c0 -3 -4 -8 -10 -11 -5 -3 -10 -1 -10 4 0 6 5 11 10 11 6 0 10 -2 10 -4z
m2036 -12 c19 -9 34 -20 34 -25 0 -13 -6 -11 -46 16 -42 29 -37 32 12 9z m184
-4 c-11 -11 -23 -20 -27 -20 -3 0 2 9 12 20 10 11 22 20 27 20 4 0 -1 -9 -12
-20z m-2061 -17 c-1 -21 -75 -88 -83 -75 -3 5 13 22 34 38 22 16 40 35 40 42
0 6 2 12 5 12 3 0 5 -8 4 -17z m645 -15 c-3 -4 -16 -1 -30 8 -32 21 -30 25 5
11 17 -6 28 -14 25 -19z m-867 -81 c4 -21 2 -26 -10 -21 -16 6 -27 66 -18 99
5 20 13 -1 28 -78z m63 83 c0 -5 -2 -10 -4 -10 -3 0 -8 5 -11 10 -3 6 -1 10 4
10 6 0 11 -4 11 -10z m1870 0 c0 -5 -4 -10 -10 -10 -5 0 -10 5 -10 10 0 6 5
10 10 10 6 0 10 -4 10 -10z m-1486 -26 c13 -5 14 -9 5 -20 -6 -8 -16 -14 -21
-14 -6 0 -4 8 3 17 12 15 12 16 -6 9 -40 -16 -151 -58 -200 -75 -132 -48 -202
-83 -217 -109 -36 -60 -85 -82 -60 -27 10 21 9 25 -4 25 -14 0 -14 3 -4 15 7
8 10 15 6 15 -4 0 1 15 10 33 12 21 19 27 22 18 3 -8 0 -17 -7 -19 -6 -2 -9
-8 -5 -13 3 -5 0 -9 -7 -9 -10 0 -10 -2 0 -12 10 -11 15 -10 24 2 15 19 83 57
73 41 -4 -6 -6 -11 -4 -11 4 0 194 73 303 115 68 27 68 27 89 19z m1333 -10
c-3 -3 -12 -4 -19 -1 -8 3 -5 6 6 6 11 1 17 -2 13 -5z m141 -19 c-3 -3 -9 2
-12 12 -6 14 -5 15 5 6 7 -7 10 -15 7 -18z m-1221 -19 c-3 -8 -1 -17 6 -20 7
-2 0 -4 -15 -3 -25 1 -26 2 -11 19 19 22 27 23 20 4z m886 -3 c-7 -2 -19 -2
-25 0 -7 3 -2 5 12 5 14 0 19 -2 13 -5z m104 -15 c-3 -8 -6 -5 -6 6 -1 11 2
17 5 13 3 -3 4 -12 1 -19z m43 12 c0 -5 -7 -7 -15 -4 -8 4 -15 8 -15 10 0 2 7
4 15 4 8 0 15 -4 15 -10z m275 -40 c17 -34 19 -44 5 -35 -5 3 -10 2 -10 -3 0
-15 28 -22 34 -9 2 7 5 4 5 -5 1 -23 -3 -23 -50 4 -40 22 -49 44 -27 66 18 18
26 15 43 -18z m-1545 -17 c0 -5 -5 -15 -10 -23 -8 -12 -10 -11 -10 8 0 12 5
22 10 22 6 0 10 -3 10 -7z m110 -32 c1 -11 5 -8 15 9 14 25 14 25 15 2 0 -12
7 -25 16 -29 9 -3 12 -9 6 -12 -5 -3 -14 -15 -20 -26 -11 -20 -12 -20 -18 3
-3 12 -11 22 -16 22 -6 0 -8 -6 -5 -14 3 -8 -1 -20 -9 -26 -17 -15 -17 -9 -3
41 10 31 9 42 -2 56 -13 16 -12 17 4 4 9 -7 17 -21 17 -30z m1180 19 c0 -5 -5
-10 -11 -10 -5 0 -7 5 -4 10 3 6 8 10 11 10 2 0 4 -4 4 -10z m-436 -67 c-4
-27 -8 -57 -10 -68 -1 -11 -3 -23 -3 -26 -1 -4 -8 -9 -16 -12 -21 -9 -14 90 9
126 10 15 20 27 23 27 2 0 1 -21 -3 -47z m340 21 c11 -28 6 -34 -12 -16 -11 9
-17 20 -15 25 7 12 21 8 27 -9z m-1476 -23 c-2 -9 -6 -18 -9 -21 -3 -3 -13
-16 -23 -30 l-18 -25 6 40 c3 22 6 45 6 52 0 6 9 9 20 6 12 -3 19 -12 18 -22z
m190 -43 c30 -33 19 -38 -15 -6 -13 13 -23 32 -22 47 1 21 2 22 6 6 3 -11 17
-32 31 -47z m37 52 c3 -5 1 -10 -4 -10 -6 0 -11 5 -11 10 0 6 2 10 4 10 3 0 8
-4 11 -10z m1194 3 c-3 -19 2 -25 14 -15 9 8 12 3 13 -19 1 -16 -3 -29 -7 -29
-5 0 -9 6 -9 14 0 7 -7 19 -15 26 -17 14 -20 30 -5 30 6 0 9 -3 9 -7z m-942
-35 c-3 -7 -5 -2 -5 12 0 14 2 19 5 13 2 -7 2 -19 0 -25z m-738 18 c-2 -2 -29
-14 -59 -26 -30 -12 -51 -18 -47 -13 5 4 27 16 50 25 41 16 65 22 56 14z m484
-21 c-3 -9 -8 -14 -10 -11 -3 3 -2 9 2 15 9 16 15 13 8 -4z m-614 -29 c-9 -9
-309 -126 -321 -125 -7 0 59 29 147 64 145 59 186 73 174 61z m708 -21 c-4 -8
-11 -15 -17 -15 -7 0 -7 6 0 21 13 23 26 19 17 -6z m1141 -7 c-2 -6 -10 -14
-16 -16 -7 -2 -10 2 -6 12 7 18 28 22 22 4z m-411 -14 c2 -6 -3 -11 -12 -11
-8 0 -15 7 -15 15 0 15 22 12 27 -4z m903 -5 c0 -11 4 -18 9 -15 5 4 7 -3 4
-15 -5 -19 -7 -18 -19 11 -17 39 -17 40 -4 40 6 0 10 -9 10 -21z m-256 3 c2
-4 -11 -6 -30 -4 -19 2 -34 6 -34 8 0 8 59 4 64 -4z m-160 -46 c-9 -15 -19
-24 -22 -22 -2 3 3 17 12 32 10 14 20 23 23 21 2 -3 -3 -17 -13 -31z m90 18
c4 -9 4 -19 1 -22 -3 -3 -5 0 -5 7 0 7 -7 11 -15 8 -15 -7 -29 6 -18 17 12 11
31 6 37 -10z m251 -43 c3 -5 1 -12 -5 -16 -5 -3 -10 1 -10 9 0 18 6 21 15 7z
m-2617 -27 c-10 -10 -21 -13 -29 -8 -12 7 0 14 41 23 2 1 -3 -6 -12 -15z m22
-79 c0 -5 -5 -3 -10 5 -5 8 -10 20 -10 25 0 6 5 3 10 -5 5 -8 10 -19 10 -25z
m1420 -258 c30 -54 -27 -122 -87 -102 -62 22 -70 105 -11 129 40 17 79 7 98
-27z m542 20 c14 -21 9 -36 -24 -73 l-33 -37 33 5 c21 3 31 1 29 -6 -3 -10
-87 -22 -87 -12 0 2 14 18 30 34 21 21 30 40 30 62 0 29 -3 32 -25 28 -24 -5
-32 2 -19 15 9 9 58 -3 66 -16z m-759 -4 c19 -23 23 -41 14 -74 -8 -30 -44
-49 -95 -49 l-37 0 3 70 4 70 47 0 c33 0 53 -5 64 -17z m397 8 c0 -4 -11 -6
-25 -3 -24 4 -25 3 -25 -56 0 -39 4 -62 13 -65 6 -3 1 -6 -13 -6 -24 -1 -25 0
-22 63 4 64 3 65 -25 69 -15 2 0 5 35 6 34 0 62 -3 62 -8z m129 -32 c8 -27 20
-43 33 -47 14 -3 16 -7 7 -13 -10 -6 -10 -11 0 -23 12 -14 10 -16 -7 -16 -12
0 -23 8 -27 19 -4 13 -12 18 -23 15 -13 -5 -14 -4 -3 4 9 7 11 19 6 43 l-8 34
-14 -33 c-7 -18 -11 -37 -8 -43 4 -5 1 -9 -5 -9 -7 0 -10 -7 -6 -15 4 -10 -1
-15 -15 -15 -18 0 -18 2 -5 23 7 12 21 43 31 70 10 26 21 47 25 47 4 0 12 -19
19 -41z"/>
<path d="M1351 1494 c0 -11 3 -14 6 -6 3 7 2 16 -1 19 -3 4 -6 -2 -5 -13z"/>
<path d="M1533 1465 c0 -22 2 -30 4 -17 2 12 2 30 0 40 -3 9 -5 -1 -4 -23z"/>
<path d="M1374 1455 c11 -8 25 -15 30 -15 6 0 2 7 -8 15 -11 8 -25 15 -30 15
-6 0 -2 -7 8 -15z"/>
<path d="M1335 1352 c-3 -11 2 -34 10 -53 9 -19 14 -24 12 -12 -3 12 0 24 7
27 6 2 3 5 -8 5 -14 1 -17 6 -12 26 7 29 0 34 -9 7z"/>
<path d="M2010 1362 c0 -4 10 -13 23 -21 22 -14 22 -14 3 8 -20 22 -26 25 -26
13z"/>
<path d="M1495 1350 c3 -5 8 -10 11 -10 2 0 4 5 4 10 0 6 -5 10 -11 10 -5 0
-7 -4 -4 -10z"/>
<path d="M1269 1323 c-1 -5 -1 -12 0 -16 1 -5 -7 -6 -18 -2 -20 6 -61 -9 -61
-23 0 -11 80 -33 92 -26 7 4 5 9 -3 15 -12 7 -12 9 0 9 8 0 11 7 8 20 -3 11
-1 18 4 14 5 -3 9 -11 9 -18 0 -8 7 -19 15 -26 12 -10 15 -10 15 4 0 9 -5 16
-11 16 -5 0 -8 4 -4 9 3 6 -3 15 -14 20 -23 13 -31 14 -32 4z"/>
<path d="M1938 1313 c7 -3 16 -2 19 1 4 3 -2 6 -13 5 -11 0 -14 -3 -6 -6z"/>
<path d="M2000 1311 c-24 -6 -43 -51 -21 -51 5 0 16 -2 23 -5 9 -4 19 4 26 17
l12 23 -5 -25 c-5 -22 -4 -23 5 -7 7 10 9 25 6 33 -4 9 -2 12 5 8 6 -3 9 -15
6 -25 -3 -11 -1 -19 5 -19 5 0 7 -4 3 -9 -3 -6 -14 -8 -24 -6 -11 2 -22 -2
-25 -10 -5 -15 2 -25 18 -25 6 0 4 5 -4 11 -12 9 -11 10 7 6 12 -3 29 1 38 7
15 11 15 15 -2 47 -21 36 -32 41 -73 30z"/>
<path d="M1200 1250 c8 -5 22 -10 30 -10 13 0 13 1 0 10 -8 5 -22 10 -30 10
-13 0 -13 -1 0 -10z"/>
<path d="M1175 1220 c-10 -11 -15 -23 -12 -27 7 -6 36 25 37 40 0 11 -6 8 -25
-13z"/>
<path d="M1100 1191 c0 -5 7 -12 16 -15 8 -3 13 -2 9 3 -3 5 1 12 7 14 7 3 3
6 -9 6 -13 1 -23 -3 -23 -8z"/>
<path d="M1391 1154 c0 -11 3 -14 6 -6 3 7 2 16 -1 19 -3 4 -6 -2 -5 -13z"/>
<path d="M1250 1100 c13 -9 13 -11 0 -20 -11 -7 -11 -10 -2 -10 7 0 10 -4 7
-10 -3 -6 1 -7 9 -4 18 7 22 -11 6 -21 -6 -4 -8 -10 -5 -15 3 -4 -2 -13 -10
-20 -8 -7 -15 -18 -15 -24 1 -25 50 47 50 73 0 27 -26 61 -46 61 -5 0 -2 -5 6
-10z"/>
<path d="M1116 1058 c-18 -25 -20 -38 -8 -38 4 0 13 14 19 30 13 36 10 38 -11
8z"/>
<path d="M1230 939 c0 -18 2 -19 15 -9 15 12 12 30 -6 30 -5 0 -9 -10 -9 -21z"/>
<path d="M2392 1408 c-14 -14 -16 -28 -3 -28 9 0 24 30 18 36 -2 2 -9 -2 -15
-8z"/>
<path d="M210 1373 c0 -5 16 -16 35 -25 25 -12 33 -14 29 -4 -3 7 -16 18 -30
25 -29 13 -34 14 -34 4z"/>
<path d="M2585 850 c-3 -5 -1 -10 4 -10 6 0 11 5 11 10 0 6 -2 10 -4 10 -3 0
-8 -4 -11 -10z"/>
<path d="M1380 215 c-13 -35 6 -84 36 -91 34 -9 54 12 54 55 0 44 -14 61 -52
61 -21 0 -31 -6 -38 -25z"/>
<path d="M1192 183 c3 -50 6 -58 24 -61 47 -7 73 67 36 101 -10 10 -29 17 -41
17 -21 0 -22 -4 -19 -57z"/>
</g>
</svg>
