<?xml version="1.0" standalone="no"?>
<!DOCTYPE svg PUBLIC "-//W3C//DTD SVG 20010904//EN"
 "http://www.w3.org/TR/2001/REC-SVG-20010904/DTD/svg10.dtd">
<svg version="1.0" xmlns="http://www.w3.org/2000/svg"
 width="321.000000pt" height="157.000000pt" viewBox="0 0 321.000000 157.000000"
 preserveAspectRatio="xMidYMid meet">

<g transform="translate(0.000000,157.000000) scale(0.100000,-0.100000)"
fill="#000000" stroke="none">
<path d="M0 1054 l0 -516 38 5 37 5 -37 -11 c-21 -6 -38 -15 -38 -19 0 -5 8
-7 18 -4 51 15 202 48 234 51 20 2 171 29 336 60 308 57 376 65 354 43 -21
-21 -13 -29 16 -14 26 13 55 7 72 -16 3 -4 11 -3 19 1 9 6 6 10 -13 15 -30 7
-35 25 -7 23 11 0 17 -5 15 -9 -3 -4 2 -8 10 -8 10 0 13 6 10 15 -4 8 -17 15
-29 15 -44 0 -74 17 -70 40 2 12 -1 20 -10 20 -8 0 -11 -7 -8 -21 5 -19 4 -20
-17 -9 -14 8 -19 15 -12 19 7 4 -19 8 -55 9 -80 3 -98 12 -25 12 29 0 52 4 52
9 0 4 -12 21 -27 36 -16 16 -22 25 -15 21 7 -4 12 -2 12 7 0 7 -12 19 -26 26
l-26 12 26 24 c16 14 26 35 26 51 0 19 14 40 48 72 26 25 46 49 45 54 -2 4 3
8 10 8 6 0 23 3 36 7 21 5 22 4 11 -16 -9 -18 -14 -20 -26 -10 -23 19 -16 -2
8 -22 20 -18 20 -19 2 -19 -11 0 -25 5 -32 12 -17 17 -14 -3 3 -26 9 -11 15
-14 15 -7 0 7 7 10 18 7 13 -5 22 1 30 19 19 41 32 19 30 -48 l-2 -62 -3 57
-4 57 -28 -30 c-16 -16 -36 -29 -45 -29 -12 0 -16 -10 -16 -40 0 -40 15 -54
26 -25 4 8 13 15 21 15 11 0 13 -11 11 -47 -3 -49 -22 -68 -33 -34 -11 36 -25
23 -25 -25 0 -42 1 -45 23 -39 12 4 32 19 45 33 12 15 29 26 37 24 19 -4 19
12 0 28 -13 11 -11 15 11 33 24 19 27 19 36 4 10 -20 32 -23 26 -5 -3 7 5 21
18 30 31 25 39 22 14 -4 -32 -35 -27 -51 7 -20 27 24 35 49 17 56 -8 3 -14 12
-14 21 0 14 -12 20 -34 16 -5 -1 -4 5 4 14 8 10 16 12 24 5 8 -6 17 -3 29 10
18 21 43 28 31 8 -4 -7 -3 -8 4 -4 6 4 8 14 5 23 -4 11 -3 14 5 9 7 -4 12 -1
12 8 0 9 5 15 12 13 6 -1 17 8 23 20 7 13 16 20 21 15 4 -4 2 1 -5 10 -7 9
-10 21 -7 27 3 5 -1 11 -9 15 -21 8 -19 36 3 36 10 0 23 5 30 12 9 9 10 6 7
-11 -4 -22 -3 -22 14 -7 22 20 38 21 22 2 -9 -10 -8 -15 1 -19 17 -6 89 23 83
33 -3 5 5 6 17 2 18 -4 20 -2 16 16 -4 15 -3 20 5 15 21 -13 36 -11 30 3 -7
19 11 18 27 -1 15 -18 44 -21 34 -2 -6 9 -5 9 7 0 12 -10 17 -9 26 5 8 14 5
21 -13 35 -13 10 -24 13 -24 7 0 -5 -5 -10 -11 -10 -6 0 -9 6 -6 13 5 17 40
16 53 -2 8 -10 13 -11 18 -3 4 7 12 12 17 12 6 0 1 -16 -11 -35 -24 -39 -23
-40 38 -22 28 9 47 22 56 39 17 33 3 52 -26 37 -23 -12 -72 -3 -63 11 4 6 -3
7 -19 0 -16 -6 -27 -6 -31 0 -4 6 -15 10 -26 10 -18 0 -19 2 -5 15 10 10 27
14 52 11 l36 -5 -20 22 c-18 19 -19 25 -7 40 13 18 13 18 19 0 3 -11 31 -35
61 -54 58 -36 73 -61 77 -122 2 -29 6 -36 18 -32 9 3 7 -1 -5 -11 -19 -15 -19
-15 10 -10 17 4 24 3 17 0 -19 -9 -4 -24 24 -24 15 0 24 -6 24 -15 0 -8 4 -15
9 -15 5 0 27 -23 50 -51 22 -27 43 -51 48 -52 4 -1 7 -5 5 -9 -1 -5 2 -8 8 -8
5 0 7 -8 4 -17 -5 -14 -4 -15 4 -4 6 8 8 21 5 29 -3 8 0 18 7 22 8 5 15 16 16
24 1 9 -2 14 -7 10 -5 -3 -7 -9 -4 -14 3 -4 -2 -11 -11 -14 -22 -8 -22 -8 -34
14 -9 16 -8 18 5 14 8 -3 12 -11 8 -17 -4 -6 -1 -7 6 -3 9 6 8 12 -4 26 -9 10
-14 25 -10 32 4 7 -2 3 -12 -9 l-18 -23 -1 25 c-1 16 2 23 10 19 6 -3 2 2 -8
10 -15 12 -22 13 -27 4 -4 -7 -5 -17 -2 -23 4 -6 2 -6 -6 1 -28 25 11 53 45
31 15 -9 24 1 17 19 -9 25 25 15 58 -17 25 -24 33 -28 45 -18 13 10 14 7 9
-19 -4 -24 -2 -32 9 -32 17 0 26 -21 26 -61 0 -22 4 -27 18 -23 13 4 12 2 -3
-7 -11 -6 -21 -12 -21 -13 -1 -1 -5 -12 -8 -26 -4 -14 -4 -20 1 -13 5 6 22 10
38 8 17 -1 36 2 43 7 7 6 16 7 20 3 4 -4 1 -10 -6 -12 -10 -4 -10 -8 0 -21 12
-15 11 -16 -5 -3 -9 7 -17 10 -17 6 0 -4 -8 -1 -18 6 -15 13 -16 12 -4 -2 10
-14 10 -20 -4 -34 -13 -12 -13 -16 -3 -15 57 8 80 -17 28 -31 -13 -3 2 -5 34
-4 38 1 62 7 68 16 12 19 11 6 -1 -25 -8 -21 -6 -27 10 -36 28 -15 47 -12 52
8 4 12 -1 17 -18 17 -17 0 -20 -3 -12 -12 7 -9 7 -13 -1 -13 -20 0 -23 28 -8
60 10 18 14 44 10 64 -6 40 13 59 23 21 3 -14 11 -25 16 -25 7 0 7 -4 1 -12
-6 -7 -13 -22 -17 -33 -5 -16 -2 -15 14 5 31 39 24 114 -11 125 -22 7 -26 25
-5 25 12 0 12 6 3 29 -9 24 -7 33 11 56 12 15 22 34 22 41 0 8 4 14 10 14 9 0
12 -3 50 -50 17 -21 16 -17 -4 25 -14 28 -21 52 -15 53 6 3 5 10 -2 19 -10 12
-10 16 2 23 10 7 16 3 20 -13 3 -12 1 -25 -5 -29 -11 -8 -1 -12 18 -9 5 1 6
-4 3 -12 -3 -7 3 -19 13 -25 17 -10 18 -9 9 21 -11 40 -11 47 1 47 5 0 7 -7 4
-15 -9 -23 4 -18 17 6 9 17 8 23 -2 30 -10 6 -10 9 -2 9 18 0 25 -18 14 -38
-6 -11 -6 -25 0 -37 10 -20 10 -20 -5 -1 -9 11 -16 14 -16 8 0 -17 34 -80 59
-112 17 -20 21 -22 21 -8 0 14 7 17 30 14 20 -2 30 1 30 10 0 9 11 14 29 14
32 0 38 -25 11 -47 -8 -7 -13 -13 -10 -13 33 -8 42 -5 56 13 l15 22 -2 -25
c-1 -14 1 -33 6 -43 4 -9 5 -28 3 -42 -3 -13 -2 -22 3 -20 7 5 25 -52 21 -67
-1 -5 13 -8 32 -8 28 0 38 -6 53 -30 9 -16 21 -30 24 -30 4 0 14 -6 21 -13 38
-38 90 -63 134 -66 56 -3 88 -17 80 -36 -5 -14 5 -17 92 -29 21 -3 22 0 22 55
0 56 -1 58 -27 61 -28 3 -40 32 -15 34 6 1 19 2 27 3 13 1 15 49 15 371 l0
370 -990 0 -989 0 -16 -30 c-17 -33 -19 -44 -6 -35 5 3 13 0 16 -6 4 -5 14 -8
22 -4 10 3 6 -7 -11 -29 -32 -43 -33 -51 -2 -31 23 15 25 15 37 -6 10 -20 8
-26 -24 -56 -22 -20 -42 -30 -52 -27 -9 4 -15 1 -15 -7 -1 -8 -10 2 -20 21
-20 35 -20 35 -14 5 4 -16 4 -27 0 -24 -4 4 -18 -3 -31 -15 -22 -19 -23 -22
-8 -33 15 -11 13 -13 -13 -14 -16 0 -23 -3 -17 -6 7 -2 13 -11 13 -19 0 -10
-6 -11 -25 -4 -16 6 -25 6 -25 0 0 -6 8 -10 18 -10 14 0 15 -2 2 -10 -8 -5
-34 -10 -57 -10 -25 0 -43 -5 -43 -11 0 -8 -4 -8 -13 0 -15 12 -17 6 -17 -59
0 -27 -3 -32 -11 -20 -8 11 -9 8 -4 -15 l7 -30 -25 23 c-15 14 -27 19 -31 13
-4 -5 2 -14 11 -20 15 -9 12 -10 -15 -11 -18 0 -31 -4 -28 -9 3 -5 -3 -11 -13
-14 -21 -5 -36 17 -24 35 4 7 1 8 -6 4 -8 -5 -14 0 -18 14 -6 22 -7 22 -20 4
-12 -16 -15 -17 -23 -4 -5 8 -10 11 -10 6 0 -5 -7 -2 -16 5 -14 11 -18 11 -29
-4 -21 -29 -40 -21 -20 9 16 24 16 26 -1 39 -16 11 -20 10 -31 -4 -11 -14 -12
-14 -13 6 0 12 12 36 27 54 20 24 23 31 11 26 -15 -5 -18 -1 -18 28 0 25 4 33
14 29 7 -3 16 2 19 10 4 9 2 16 -3 16 -6 0 -10 -4 -10 -9 0 -4 -11 -6 -25 -3
-18 3 -25 0 -25 -12 0 -9 -4 -16 -10 -16 -5 0 -10 -8 -10 -17 0 -13 -7 -9 -29
15 -17 17 -34 32 -38 32 -5 0 -14 9 -21 20 -7 11 -19 20 -28 20 -12 0 -14 9
-9 53 4 29 2 65 -4 80 -12 31 -9 34 13 11 25 -24 19 0 -7 29 l-23 27 -217 0
-217 0 0 -516z m2952 412 l-27 -29 28 18 c15 10 30 15 34 12 5 -6 -32 -107
-60 -160 -14 -27 -16 -27 -21 -9 -4 11 -9 48 -11 81 -4 55 -3 62 18 76 13 8
30 26 37 40 10 18 16 22 21 13 5 -8 -2 -24 -19 -42z m-172 -26 c0 -5 -4 -10
-10 -10 -5 0 -10 5 -10 10 0 6 5 10 10 10 6 0 10 -4 10 -10z m-770 -22 c0 -4
6 -8 14 -8 12 0 14 -17 8 -67 -2 -16 -58 -17 -67 -3 -5 8 -11 7 -20 0 -11 -10
-13 -8 -10 9 2 12 7 27 12 34 8 12 9 17 12 37 1 11 51 9 51 -2z m637 -53 c7
-20 -2 -29 -21 -22 -9 4 -13 13 -10 22 8 19 23 19 31 0z m33 -41 c0 -8 -9 -14
-21 -14 -16 0 -19 -4 -14 -20 5 -15 3 -18 -9 -14 -12 5 -13 10 -5 25 5 10 6
19 2 19 -4 0 2 6 12 14 22 16 35 12 35 -10z m-770 -7 c0 -2 -17 -19 -37 -38
l-38 -34 34 38 c33 34 41 42 41 34z m270 -37 c0 -5 -4 -10 -10 -10 -5 0 -10 5
-10 10 0 6 5 10 10 10 6 0 10 -4 10 -10z m148 -9 c25 -22 29 -41 7 -41 -8 0
-15 -6 -15 -12 0 -9 -4 -8 -10 2 -6 10 -7 2 -3 -25 7 -48 10 -52 25 -37 22 22
29 12 13 -17 -30 -59 -90 -76 -166 -49 l-34 13 44 5 c41 5 46 9 67 50 12 24
25 64 29 87 7 48 11 50 43 24z m269 4 c0 -18 -28 -16 -35 3 -2 7 5 12 16 12
10 0 19 -7 19 -15z m-47 -19 c0 -14 11 -38 25 -54 21 -25 22 -31 10 -36 -10
-3 -18 1 -22 12 -4 9 -15 26 -25 36 -20 22 -23 36 -8 36 5 0 7 7 4 15 -4 8 -1
15 5 15 6 0 11 -11 11 -24z m188 -43 c21 -17 33 -16 26 2 -3 8 0 21 8 29 13
12 16 11 26 -5 7 -11 18 -16 27 -12 28 10 12 -20 -25 -49 -36 -28 -56 -36 -45
-18 4 6 -5 10 -20 10 -14 0 -24 -4 -21 -8 3 -5 -9 -6 -27 -3 -29 5 -30 6 -7 9
33 5 49 20 32 31 -7 4 -15 20 -18 35 -3 18 -1 25 6 21 5 -3 11 2 11 12 1 10 4
5 6 -12 2 -16 12 -36 21 -42z m-353 37 c3 -5 1 -10 -4 -10 -6 0 -11 5 -11 10
0 6 2 10 4 10 3 0 8 -4 11 -10z m-949 -27 c-3 -10 -16 -23 -29 -29 -22 -10
-23 -9 -13 12 6 12 16 19 23 17 8 -3 13 2 13 13 0 9 3 15 6 11 3 -3 3 -14 0
-24z m394 17 c0 -5 -5 -10 -11 -10 -5 0 -7 5 -4 10 3 6 8 10 11 10 2 0 4 -4 4
-10z m760 6 c0 -3 -4 -8 -10 -11 -5 -3 -10 -1 -10 4 0 6 5 11 10 11 6 0 10 -2
10 -4z m35 -6 c3 -6 -1 -7 -9 -4 -18 7 -21 14 -7 14 6 0 13 -4 16 -10z m-2145
-29 c0 -24 -26 -48 -32 -29 -5 14 12 48 24 48 5 0 8 -8 8 -19z m50 -8 c0 -14
-19 -38 -25 -32 -8 8 5 39 16 39 5 0 9 -3 9 -7z m427 -27 c-3 -8 -1 -17 6 -19
7 -2 9 -8 5 -12 -4 -4 -13 -1 -21 6 -10 10 -11 17 -3 26 15 16 19 16 13 -1z
m1684 -23 l34 -17 -45 -9 c-25 -5 -51 -14 -57 -19 -10 -8 -13 -6 -13 6 0 11 5
14 12 10 8 -5 9 -2 5 9 -5 13 9 30 29 37 0 0 16 -8 35 -17z m-463 -18 c-3 -3
-9 2 -12 12 -6 14 -5 15 5 6 7 -7 10 -15 7 -18z m-1698 0 c0 -8 -4 -15 -10
-15 -5 0 -10 7 -10 15 0 8 5 15 10 15 6 0 10 -7 10 -15z m210 -40 c-7 -8 -18
-15 -24 -15 -6 0 -2 7 8 15 25 19 32 19 16 0z m528 -11 c-1 -5 -9 -9 -16 -10
-10 -2 -11 1 -1 12 12 14 24 13 17 -2z m1718 -56 c8 -16 13 -28 10 -28 -5 0
-46 69 -46 78 0 8 15 -13 36 -50z m-2375 29 c-1 -12 -15 -9 -19 4 -3 6 1 10 8
8 6 -3 11 -8 11 -12z m-220 -30 c-8 -8 -11 -7 -11 4 0 20 13 34 18 19 3 -7 -1
-17 -7 -23z m769 3 c-13 -25 -27 -33 -35 -19 -8 12 26 49 38 42 4 -2 3 -13 -3
-23z m1710 -10 c-19 -17 -41 -30 -49 -30 -8 0 5 13 29 29 58 38 64 38 20 1z
m-2315 -9 c-3 -6 3 -14 12 -20 16 -9 16 -10 -4 -11 -12 0 -25 5 -28 10 -7 12
2 30 16 30 6 0 8 -4 4 -9z m75 -6 c0 -1 -15 -2 -32 -2 -26 -1 -29 1 -13 7 17
6 45 3 45 -5z m1575 -25 c-3 -5 -12 -10 -18 -10 -7 0 -6 4 3 10 19 12 23 12
15 0z m825 -34 c0 -12 -5 -7 -19 24 -11 24 -11 24 3 6 9 -11 16 -24 16 -30z
m-167 27 c-7 -2 -19 -2 -25 0 -7 3 -2 5 12 5 14 0 19 -2 13 -5z m-1775 -43
c-2 -7 -10 1 -17 16 -12 27 -11 28 4 12 10 -9 16 -21 13 -28z m1260 -6 c-4 -3
-17 -2 -30 2 -22 7 -22 7 -3 14 20 8 44 -4 33 -16z m-45 -33 c-3 -11 -11 -17
-19 -14 -10 4 -11 8 -1 19 17 19 26 17 20 -5z m825 -18 c2 -9 -8 -13 -32 -13
-34 0 -44 8 -29 24 11 11 56 2 61 -11z m73 -19 c17 -21 -4 -35 -45 -32 -37 4
-43 20 -14 34 33 16 44 16 59 -2z m-3074 -200 c-3 -3 -12 -4 -19 -1 -8 3 -5 6
6 6 11 1 17 -2 13 -5z m-40 -10 c-3 -3 -12 -4 -19 -1 -8 3 -5 6 6 6 11 1 17
-2 13 -5z m88 -84 c-11 -5 -27 -9 -35 -9 -9 0 -8 4 5 9 11 5 27 9 35 9 9 0 8
-4 -5 -9z"/>
<path d="M1120 1562 c0 -5 14 -9 31 -9 17 0 34 -5 38 -12 6 -9 10 -7 14 8 5
19 1 21 -39 21 -24 0 -44 -4 -44 -8z"/>
<path d="M750 1259 c0 -6 -7 -9 -15 -5 -21 8 -19 -6 5 -26 10 -10 22 -13 25
-8 3 5 1 11 -4 15 -6 3 -8 12 -4 20 3 8 2 15 -1 15 -3 0 -6 -5 -6 -11z"/>
<path d="M1701 1239 c-13 -5 -22 -11 -20 -14 8 -7 49 7 49 16 0 5 -1 9 -2 8
-2 0 -14 -5 -27 -10z"/>
<path d="M670 1210 c0 -5 9 -10 20 -10 11 0 20 5 20 10 0 6 -9 10 -20 10 -11
0 -20 -4 -20 -10z"/>
<path d="M1730 1216 c0 -2 9 -6 20 -9 11 -3 18 -1 14 4 -5 9 -34 13 -34 5z"/>
<path d="M886 1202 c-3 -6 -1 -14 5 -17 15 -10 25 3 12 16 -7 7 -13 7 -17 1z"/>
<path d="M1290 1180 c0 -5 5 -10 11 -10 5 0 7 5 4 10 -3 6 -8 10 -11 10 -2 0
-4 -4 -4 -10z"/>
<path d="M720 1168 c0 -6 3 -8 7 -5 3 4 11 2 18 -3 8 -7 12 -5 12 5 0 8 -9 15
-19 15 -10 0 -18 -5 -18 -12z"/>
<path d="M1325 1161 c3 -2 0 -10 -6 -18 -9 -9 -8 -13 0 -13 6 0 11 5 11 10 0
6 7 10 15 10 8 0 15 4 15 8 0 4 -9 8 -20 8 -10 0 -17 -2 -15 -5z"/>
<path d="M2345 1081 c-3 -5 0 -13 6 -17 6 -3 15 -1 19 5 5 9 11 8 23 -4 13
-12 21 -14 37 -5 11 6 18 15 15 21 -8 12 -92 12 -100 0z"/>
<path d="M2060 1062 c-8 -9 -13 -16 -11 -15 2 2 9 -1 15 -7 8 -6 12 -1 14 16
2 28 2 28 -18 6z"/>
<path d="M1517 1046 c-49 -18 -98 -56 -120 -95 l-18 -31 25 0 c27 0 59 -26 53
-44 -6 -18 -57 -20 -57 -2 0 8 5 18 12 22 8 5 9 2 5 -9 -5 -12 -1 -17 13 -17
23 0 26 13 6 29 -11 9 -20 10 -35 1 -17 -9 -21 -20 -21 -65 0 -30 3 -55 8 -56
4 0 15 -2 24 -4 9 -2 23 4 30 13 12 15 11 16 -5 3 -15 -12 -17 -12 -11 3 7 17
34 22 34 6 0 -5 5 -10 11 -10 6 0 10 17 9 43 -5 95 -5 97 43 97 33 0 49 6 65
23 12 13 22 27 22 32 0 5 -7 0 -15 -11 -19 -25 -19 -4 0 32 12 24 15 26 16 9
1 -17 2 -16 9 5 6 19 8 11 9 -32 l1 -58 88 0 87 -1 -40 -14 c-43 -15 -55 -29
-98 -105 l-28 -50 49 0 c47 0 50 1 44 23 -5 19 -4 20 11 8 9 -7 14 -18 11 -23
-4 -5 8 -8 26 -6 41 4 60 30 43 57 -14 23 -8 31 24 31 27 0 27 0 9 45 -18 43
-63 103 -87 115 -14 8 -16 6 -11 -12 5 -21 5 -21 -26 -2 -18 10 -32 26 -32 35
0 9 -10 19 -22 23 -39 10 -121 6 -161 -8z m23 -59 c0 -14 -27 -37 -43 -37 -20
0 -31 31 -15 41 16 10 58 7 58 -4z"/>
<path d="M1270 1011 c-8 -9 -13 -15 -11 -14 2 2 10 -2 16 -7 9 -7 16 -6 24 4
18 21 -10 38 -29 17z"/>
<path d="M2683 954 c2 -50 0 -73 -7 -70 -6 2 -10 9 -8 15 1 6 -7 11 -18 11
-13 0 -20 7 -20 20 0 19 -25 29 -32 13 -1 -5 -18 -21 -37 -36 -30 -25 -35 -26
-51 -12 -9 8 -22 15 -28 15 -7 0 -12 5 -12 10 0 6 -9 10 -20 10 -24 0 -25 -8
-5 -36 13 -19 12 -24 -14 -53 -25 -27 -27 -35 -18 -55 10 -21 13 -22 23 -8 8
11 13 12 18 3 6 -9 11 -9 21 -1 9 8 14 3 18 -20 8 -37 37 -41 37 -5 0 33 26
33 34 0 7 -27 36 -25 36 4 0 9 23 39 52 66 28 28 48 43 43 35 -4 -8 -5 -12 0
-8 4 4 15 2 23 -5 11 -8 14 -8 9 0 -4 6 -3 14 3 18 12 7 14 45 2 45 -5 0 -16
15 -24 34 -15 30 -15 36 -2 55 8 11 14 21 12 22 -38 9 -38 9 -35 -67z m30 -43
c3 -14 1 -18 -9 -14 -8 3 -14 14 -14 25 0 23 16 16 23 -11z m-196 -141 c-1
-22 -17 -28 -17 -7 0 12 9 27 16 27 2 0 2 -9 1 -20z"/>
<path d="M896 996 c-13 -15 -26 -44 -30 -66 -3 -23 -13 -43 -22 -47 -12 -5
-12 -8 6 -20 11 -8 20 -22 20 -32 0 -28 39 -71 63 -71 20 0 22 4 19 55 -4 61
12 74 41 33 15 -22 15 -22 14 19 -1 38 -3 41 -18 28 -33 -30 -41 -19 -38 52 3
58 1 68 -13 71 -10 2 -28 -8 -42 -22z m44 -7 c0 -5 -7 -9 -15 -9 -12 0 -15
-18 -15 -102 0 -56 -3 -98 -7 -94 -4 4 -6 23 -6 44 1 32 0 34 -7 12 -7 -22 -8
-22 -9 -4 -1 11 4 25 11 32 9 9 9 12 0 12 -15 0 -16 61 -1 94 8 16 17 22 27
19 11 -5 13 -3 7 7 -5 9 -4 11 3 6 7 -4 12 -11 12 -17z"/>
<path d="M893 925 c0 -22 2 -30 4 -17 2 12 2 30 0 40 -3 9 -5 -1 -4 -23z"/>
<path d="M1200 1005 c-10 -13 -9 -15 9 -15 11 0 21 4 21 9 0 18 -18 21 -30 6z"/>
<path d="M2070 996 c7 -7 13 -7 20 0 6 6 3 10 -10 10 -13 0 -16 -4 -10 -10z"/>
<path d="M2636 960 c3 -14 10 -29 15 -34 14 -16 10 6 -7 34 l-15 25 7 -25z"/>
<path d="M1268 874 c2 -56 -1 -90 -8 -100 -10 -12 -7 -14 19 -14 l31 0 0 94
c0 66 4 96 13 99 6 3 -4 6 -23 6 l-35 1 3 -86z"/>
<path d="M2400 941 c0 -25 6 -27 13 -6 4 8 2 17 -3 20 -6 4 -10 -3 -10 -14z"/>
<path d="M2020 936 c0 -2 9 -6 20 -9 11 -3 18 -1 14 4 -5 9 -34 13 -34 5z"/>
<path d="M1356 894 c-22 -21 -24 -86 -5 -110 5 -6 7 -13 4 -15 -2 -3 4 -5 15
-5 14 0 16 4 9 13 -6 7 -9 39 -7 73 1 33 2 60 1 60 -1 0 -9 -7 -17 -16z"/>
<path d="M1081 883 c-10 -12 -11 -17 -2 -23 9 -5 11 -39 9 -119 -3 -109 -3
-111 20 -111 22 0 22 2 22 118 0 101 -3 121 -17 135 -16 13 -20 13 -32 0z"/>
<path d="M1529 861 c-16 -16 -29 -38 -29 -48 0 -16 6 -19 33 -17 21 2 15 -1
-18 -10 -83 -21 -84 -24 -4 -25 l75 -1 24 48 c34 65 34 66 22 58 -6 -3 -13 -2
-17 3 -3 6 3 8 15 6 11 -2 22 0 25 6 4 5 -16 9 -45 9 -44 0 -56 -5 -81 -29z
m71 -48 c-11 -17 -11 -17 -6 0 3 10 7 26 7 35 1 15 2 15 6 0 2 -10 -1 -25 -7
-35z"/>
<path d="M2050 880 c0 -5 5 -10 11 -10 5 0 7 5 4 10 -3 6 -8 10 -11 10 -2 0
-4 -4 -4 -10z"/>
<path d="M2375 880 c-3 -5 -2 -10 4 -10 5 0 13 5 16 10 3 6 2 10 -4 10 -5 0
-13 -4 -16 -10z"/>
<path d="M1184 858 c-4 -6 -3 -8 3 -5 15 9 23 -31 13 -59 -8 -21 -7 -24 13
-22 18 2 24 9 25 34 3 45 -36 82 -54 52z"/>
<path d="M1150 841 c0 -10 8 -25 18 -32 15 -12 16 -12 4 2 -7 9 -10 24 -6 33
3 9 1 16 -5 16 -6 0 -11 -8 -11 -19z"/>
<path d="M2092 839 c-8 -12 -9 -18 -3 -14 8 4 11 -18 11 -69 0 -69 2 -76 20
-76 18 0 20 7 20 63 0 37 5 69 13 76 6 8 7 11 1 8 -6 -3 -17 3 -24 14 -18 24
-22 24 -38 -2z"/>
<path d="M1834 824 c3 -9 6 -45 6 -80 0 -50 3 -64 15 -64 11 0 15 11 15 42 0
40 0 41 20 23 20 -18 20 -17 20 15 0 27 -3 31 -12 22 -20 -20 -28 -14 -28 23
0 29 -4 35 -21 35 -15 0 -19 -4 -15 -16z"/>
<path d="M1917 820 c10 -11 19 -20 20 -20 2 0 3 9 3 20 0 13 -7 20 -20 20 -19
0 -19 -1 -3 -20z"/>
<path d="M2177 830 c7 -8 9 -25 6 -41 -5 -27 -3 -29 26 -29 21 0 31 5 31 15 0
10 -10 15 -27 15 -16 0 -23 4 -18 8 18 12 11 36 -10 40 -16 3 -17 1 -8 -8z"/>
<path d="M1045 810 c-4 -11 -18 -27 -33 -35 l-27 -14 38 -1 c36 0 37 1 37 35
0 39 -6 45 -15 15z"/>
<path d="M2696 817 c3 -10 9 -15 12 -12 3 3 0 11 -7 18 -10 9 -11 8 -5 -6z"/>
<path d="M2722 810 c-7 -11 -18 -20 -26 -20 -7 0 -16 -10 -19 -21 -5 -19 -2
-21 24 -15 36 7 38 -7 4 -31 -14 -10 -36 -26 -48 -36 -21 -17 -21 -17 17 -2
47 18 46 19 46 -1 0 -11 -6 -14 -17 -10 -11 4 -8 -1 7 -13 13 -11 28 -17 33
-14 5 3 4 -4 -2 -16 -7 -11 -14 -21 -17 -21 -3 0 -2 5 2 12 5 7 3 8 -6 3 -10
-6 -9 -11 6 -23 18 -13 18 -14 -6 -7 -23 7 -24 6 -11 -9 12 -15 12 -19 -2 -33
-15 -15 -16 -15 -13 3 2 10 1 13 -1 7 -3 -7 -9 -13 -14 -13 -4 0 -3 -11 3 -25
16 -35 2 -43 -27 -15 -35 33 -31 18 6 -25 17 -19 27 -35 21 -35 -5 0 -14 -17
-19 -37 l-9 -38 -23 35 c-20 32 -21 33 -15 8 5 -23 2 -29 -22 -40 -16 -7 -32
-17 -36 -23 -5 -6 -8 -5 -8 3 0 6 -7 12 -15 12 -9 0 -28 8 -43 17 -17 10 -22
11 -14 3 16 -18 16 -64 0 -54 -6 4 -17 -2 -25 -12 -14 -19 -15 -19 -29 1 -8
11 -12 26 -8 35 12 30 9 38 -26 62 -29 20 -38 34 -51 88 -15 60 -15 66 0 72
14 6 14 7 -1 7 -9 1 -20 10 -23 21 -3 11 -15 25 -26 31 -12 6 -18 16 -16 23 3
7 1 19 -3 27 -7 10 -9 7 -8 -11 1 -14 12 -39 25 -57 13 -18 19 -34 13 -38 -5
-3 -7 -12 -4 -20 4 -8 10 -12 15 -9 5 3 6 -2 3 -10 -3 -9 -10 -13 -15 -10 -5
3 -9 2 -8 -3 4 -25 -3 -35 -21 -30 -13 3 -20 0 -20 -9 0 -8 -4 -14 -9 -14 -5
0 -11 -22 -15 -50 -6 -47 -45 -110 -67 -110 -25 0 -59 50 -59 86 0 28 -3 34
-12 27 -15 -11 -98 -33 -98 -26 0 3 10 14 23 24 20 19 20 19 1 10 -16 -8 -24
-6 -35 7 -24 28 -11 49 37 62 24 7 44 15 44 19 0 4 15 15 34 25 53 28 55 48 4
30 -48 -17 -48 -17 -48 -4 0 5 18 19 40 30 21 11 44 29 50 40 9 18 8 20 -15
20 -29 0 -35 10 -38 66 -2 26 -8 39 -17 39 -10 0 -14 -9 -12 -26 1 -14 -4 -43
-11 -64 l-14 -40 -17 53 c-10 30 -24 52 -32 52 -8 0 -14 -4 -14 -9 0 -19 48
-135 57 -138 6 -2 19 27 31 64 11 37 21 59 21 48 1 -11 -8 -42 -18 -70 -17
-43 -23 -50 -45 -48 -14 1 -26 -2 -26 -8 0 -5 7 -9 15 -9 8 0 15 -5 15 -10 0
-7 -7 -7 -21 1 -17 9 -23 8 -30 -2 -5 -8 -7 -20 -4 -27 3 -8 -2 -20 -10 -28
-11 -11 -15 -12 -15 -3 0 11 -2 11 -12 0 -11 -10 -10 -14 5 -22 9 -6 17 -15
17 -21 0 -6 -8 -4 -18 5 -24 21 -36 22 -28 1 4 -11 2 -15 -8 -11 -11 4 -13 1
-9 -11 5 -14 3 -15 -7 -5 -22 20 -53 -13 -39 -41 10 -21 10 -21 -7 -1 -11 13
-18 16 -21 8 -2 -7 -11 -9 -19 -6 -10 4 -12 0 -7 -13 6 -17 5 -17 -10 -5 -15
12 -17 11 -18 -5 0 -11 -3 -14 -6 -6 -9 23 -23 12 -18 -15 l6 -28 -15 26 c-14
24 -18 25 -50 15 -19 -6 -32 -15 -28 -21 8 -13 12 -39 5 -31 -4 3 -14 -1 -24
-10 -11 -10 -19 -12 -24 -5 -3 6 -15 11 -26 11 -10 0 -19 4 -19 9 0 14 18 23
24 12 8 -13 58 -11 53 3 -3 6 -10 10 -16 9 -6 -2 -17 -4 -23 -5 -7 -2 -12 4
-10 12 2 10 -6 6 -24 -10 -24 -23 -26 -23 -16 -3 9 17 9 22 -4 27 -44 17 -54
-1 -21 -37 13 -13 18 -29 15 -52 -3 -23 1 -36 13 -44 13 -7 19 -7 22 2 8 22
22 -5 26 -47 1 -4 7 -6 15 -3 19 8 30 -66 15 -110 -9 -29 -15 -34 -37 -31 -21
2 -34 17 -64 73 -37 69 -47 105 -29 105 14 0 23 33 10 40 -10 7 -17 41 -18 98
-1 12 -7 22 -15 22 -8 0 -16 3 -19 8 -2 4 -2 1 -1 -6 3 -9 -1 -10 -16 -2 -24
13 -30 13 -30 -1 0 -5 5 -7 10 -4 6 3 10 -3 10 -14 0 -15 4 -19 18 -14 9 4 20
11 24 17 4 6 8 -6 8 -26 0 -39 -8 -46 -27 -27 -7 7 -16 -11 -29 -61 -11 -44
-25 -75 -36 -81 -16 -8 -17 -7 -9 14 9 23 7 24 -32 25 -46 0 -184 29 -152 31
11 1 27 6 35 11 10 7 -5 8 -50 4 -53 -5 -68 -3 -79 10 -16 19 -33 12 -24 -10
7 -18 -40 -67 -53 -56 -4 4 -4 1 0 -6 4 -7 0 -15 -11 -19 -10 -4 -28 -20 -41
-35 -13 -15 -28 -25 -34 -22 -5 3 -4 -3 4 -15 7 -12 19 -21 26 -21 24 0 23
-28 -2 -55 -15 -16 -24 -31 -21 -34 3 -2 14 4 24 15 30 31 131 186 131 201 0
8 5 11 10 8 19 -12 10 -51 -29 -115 -30 -50 -36 -66 -25 -68 10 -2 13 -10 9
-23 -4 -11 -2 -19 4 -19 6 0 11 5 11 10 0 7 6 7 19 0 24 -12 2079 -14 2099 -2
9 7 12 43 10 147 l-3 138 -40 13 c-47 14 -35 18 13 5 31 -9 33 -8 30 12 -3 19
-13 24 -73 34 -38 7 -81 15 -95 19 -23 5 -24 5 -8 -13 11 -12 14 -23 8 -33 -5
-9 -1 -30 11 -54 10 -22 19 -44 18 -50 0 -6 -4 -2 -9 9 -8 20 -9 20 -9 -1 -1
-22 -34 -57 -63 -67 -14 -5 -18 -1 -18 19 0 17 9 30 30 42 16 9 30 23 30 30 0
6 -2 12 -4 12 -10 0 -66 -56 -66 -66 0 -7 -8 -10 -22 -6 -15 4 -19 2 -13 -7 6
-10 3 -11 -13 -2 -26 14 -42 14 -42 1 0 -5 8 -7 18 -4 13 5 14 4 3 -4 -11 -8
-11 -10 0 -15 8 -3 9 -6 3 -6 -5 -1 -20 8 -32 19 -25 24 -32 25 -32 5 0 -16
-5 -18 -36 -9 -16 4 -19 11 -16 35 3 21 9 29 19 25 11 -4 13 0 9 17 -3 12 -3
16 0 10 3 -7 17 -13 30 -13 l25 0 -26 43 c-14 24 -25 47 -25 50 0 4 29 7 64 7
62 0 133 20 119 33 -9 10 38 9 94 -2 129 -25 123 -26 123 14 0 31 -5 38 -35
52 -43 20 -46 35 -6 23 33 -9 41 -5 41 21 0 11 -11 20 -30 24 -16 4 -32 11
-35 16 -4 5 -13 5 -25 -1 -10 -5 -35 -9 -57 -8 -21 1 -46 -2 -55 -6 -15 -7
-18 -3 -18 17 0 14 -7 27 -15 31 -28 10 -15 37 26 55 37 17 39 20 20 26 -11 3
-21 11 -21 16 0 5 -11 9 -25 9 -20 0 -25 5 -25 26 0 16 -16 41 -46 72 l-45 47
6 -34 c7 -32 6 -34 -16 -28 -13 4 -36 7 -51 7 -23 0 -28 4 -28 26 0 21 -4 24
-20 19 -15 -5 -18 -3 -14 9 9 22 1 20 -14 -4z m108 -95 c24 -14 24 -14 3 -15
-30 0 -54 10 -47 21 7 12 14 11 44 -6z m-37 -69 c9 1 17 -2 17 -7 0 -9 -2 -10
-36 -14 -17 -2 -20 2 -16 17 2 11 8 15 11 10 3 -5 14 -8 24 -6z m72 -62 c10
-14 14 -15 15 -5 0 8 3 12 6 8 3 -3 3 -20 -1 -37 -7 -30 -8 -30 -25 -15 -17
16 -20 15 -40 -5 -20 -20 -21 -24 -6 -38 14 -15 13 -17 -12 -28 -57 -23 -131
10 -89 41 10 7 17 21 17 31 1 59 100 94 135 48z m75 -18 c0 -2 -7 -7 -16 -10
-8 -3 -12 -2 -9 4 6 10 25 14 25 6z m-950 -16 c0 -5 -4 -10 -10 -10 -5 0 -10
5 -10 10 0 6 5 10 10 10 6 0 10 -4 10 -10z m875 -98 c-3 -3 -11 0 -18 7 -9 10
-8 11 6 5 10 -3 15 -9 12 -12z m52 -48 c-3 -3 -12 -4 -19 -1 -8 3 -5 6 6 6 11
1 17 -2 13 -5z m56 -11 c-7 -2 -19 -2 -25 0 -7 3 -2 5 12 5 14 0 19 -2 13 -5z
m-908 -33 c-16 -11 -34 -20 -38 -20 -14 0 4 21 27 30 37 15 42 11 11 -10z
m555 -24 c-21 -20 -34 -27 -37 -18 -3 6 -10 9 -15 6 -7 -4 -8 -2 -4 5 4 6 12
9 17 6 5 -4 9 -1 9 6 0 7 3 9 7 6 3 -4 13 2 20 13 8 11 19 17 25 14 6 -4 -3
-19 -22 -38z m-69 -33 c5 -14 7 -28 4 -31 -3 -3 -5 0 -5 6 0 6 -7 9 -15 6 -14
-6 -13 -8 2 -20 10 -7 13 -14 7 -14 -6 0 -17 6 -23 14 -10 11 -8 16 5 24 16 9
15 11 -4 21 -12 7 -22 18 -22 27 0 23 39 -2 51 -33z m539 37 c0 -5 8 -10 18
-10 12 0 10 -4 -8 -13 -14 -7 -33 -11 -43 -9 -17 4 -17 6 -1 23 19 21 34 25
34 9z m-389 -27 c13 -16 12 -17 -3 -4 -17 13 -22 21 -14 21 2 0 10 -8 17 -17z
m-704 -19 c-9 -9 -28 6 -21 18 4 6 10 6 17 -1 6 -6 8 -13 4 -17z m385 -11 c10
-9 18 -25 18 -36 0 -13 5 -17 15 -13 8 3 15 1 15 -5 0 -5 -10 -14 -22 -19 -21
-8 -22 -9 -3 -10 17 -2 16 -3 -5 -9 -15 -4 -24 -14 -24 -24 1 -9 -3 -15 -10
-14 -6 1 -10 -3 -9 -10 2 -7 -6 -17 -17 -23 -16 -8 -20 -8 -18 2 2 7 -5 12
-14 12 -27 -3 -22 4 18 21 21 9 33 19 29 26 -5 7 -10 8 -18 0 -7 -7 -16 -7
-29 0 -12 6 -18 6 -18 -1 0 -5 -9 -10 -20 -10 -21 0 -24 8 -14 34 5 12 21 16
63 17 42 0 51 2 34 9 -20 8 -21 12 -10 39 13 36 14 36 39 14z m398 -3 c0 -5
-5 -10 -11 -10 -5 0 -7 5 -4 10 3 6 8 10 11 10 2 0 4 -4 4 -10z m290 -130 c-6
-11 -16 -18 -21 -14 -7 4 -7 10 0 17 6 6 11 20 11 32 1 18 2 18 11 3 7 -12 6
-24 -1 -38z m-48 -19 c-5 -3 -15 -17 -22 -31 l-13 -25 -8 29 c-9 34 -5 44 25
55 15 6 22 4 24 -7 2 -8 0 -17 -6 -21z m-69 22 c-7 -2 -21 -2 -30 0 -10 3 -4
5 12 5 17 0 24 -2 18 -5z"/>
<path d="M2790 570 c0 -5 5 -10 10 -10 6 0 10 5 10 10 0 6 -4 10 -10 10 -5 0
-10 -4 -10 -10z"/>
<path d="M2260 795 c14 -7 27 -11 30 -9 6 7 -22 24 -40 23 -9 0 -5 -6 10 -14z"/>
<path d="M1141 784 c0 -11 3 -14 6 -6 3 7 2 16 -1 19 -3 4 -6 -2 -5 -13z"/>
<path d="M2159 783 c-1 -5 -3 -27 -5 -50 -3 -41 -3 -42 16 -31 11 7 20 18 20
25 0 6 8 14 18 16 13 4 11 5 -5 6 -14 1 -23 -5 -23 -14 0 -8 -4 -15 -8 -15 -4
0 -6 16 -4 35 2 19 1 35 -2 35 -3 0 -6 -3 -7 -7z"/>
<path d="M2316 775 c-4 -11 1 -15 19 -15 28 0 33 15 9 24 -21 8 -21 8 -28 -9z"/>
<path d="M2268 763 c7 -3 16 -2 19 1 4 3 -2 6 -13 5 -11 0 -14 -3 -6 -6z"/>
<path d="M980 728 c0 -19 2 -20 10 -8 13 19 13 30 0 30 -5 0 -10 -10 -10 -22z"/>
<path d="M1040 740 c0 -6 -4 -9 -9 -5 -11 6 -26 -13 -17 -22 3 -3 12 -1 19 6
8 6 22 8 32 5 13 -5 16 -3 13 7 -6 17 -38 25 -38 9z"/>
<path d="M1144 735 c-4 -8 -1 -22 6 -30 14 -17 40 -20 40 -4 0 5 -4 8 -9 5 -5
-3 -14 1 -21 9 -9 10 -9 15 -1 15 6 0 11 5 11 10 0 16 -20 12 -26 -5z"/>
<path d="M1364 713 c9 -27 19 -38 34 -39 14 -1 19 4 16 15 -2 9 1 4 8 -10 8
-15 19 -24 27 -21 8 3 11 0 7 -7 -4 -6 -5 -25 -1 -41 12 -52 132 -90 216 -67
22 5 25 11 21 37 l-4 30 -114 0 c-95 0 -114 3 -114 15 0 8 7 15 16 15 8 0 12
-4 9 -10 -3 -5 2 -10 13 -10 24 0 50 28 61 66 5 16 12 37 16 47 7 16 -2 17
-108 17 l-116 0 13 -37z m36 -19 c0 -8 -4 -12 -10 -9 -5 3 -10 10 -10 16 0 5
5 9 10 9 6 0 10 -7 10 -16z m95 -112 c-3 -3 -11 0 -18 7 -9 10 -8 11 6 5 10
-3 15 -9 12 -12z m42 -14 c-3 -8 -6 -5 -6 6 -1 11 2 17 5 13 3 -3 4 -12 1 -19z"/>
<path d="M1630 724 c-15 -38 -12 -53 15 -79 16 -17 35 -25 59 -25 39 0 53 -14
36 -35 -17 -21 0 -18 29 4 28 22 22 36 -18 44 -52 11 -77 57 -51 97 6 10 8 4
4 -21 -5 -30 -2 -39 17 -53 13 -9 31 -16 41 -16 20 0 48 -26 48 -45 0 -7 -7
-21 -16 -29 -21 -22 -5 -20 19 2 20 16 20 16 14 -3 -6 -17 -5 -18 6 -5 7 8 19
21 27 29 13 11 12 12 -7 2 -21 -11 -23 -9 -23 16 0 39 -10 50 -54 65 -46 15
-67 41 -48 60 10 10 12 8 10 -10 -3 -20 5 -27 46 -43 54 -20 60 -20 50 5 -4
10 -17 16 -35 16 -31 0 -35 6 -18 30 9 13 10 12 5 -2 -4 -13 0 -18 14 -18 12
0 20 7 20 18 0 15 -11 18 -90 19 -88 2 -91 1 -100 -23z m164 -75 c6 -5 -4 -5
-24 1 -18 5 -35 12 -39 16 -9 10 53 -6 63 -17z"/>
<path d="M2230 655 c0 -52 4 -95 8 -95 4 0 7 24 7 53 -1 28 2 67 5 86 l5 34
39 -66 c21 -37 40 -67 42 -67 2 0 3 25 3 55 -2 56 14 90 35 78 6 -3 7 -2 3 3
-4 4 -26 10 -48 11 -36 3 -38 1 -27 -17 9 -14 14 -16 20 -7 4 7 8 8 8 2 0 -5
-4 -16 -9 -24 -6 -10 -13 -6 -27 18 -12 20 -26 31 -41 31 -22 0 -23 -3 -23
-95z"/>
<path d="M1924 705 l-21 -23 21 -6 c26 -7 28 -4 24 28 l-3 25 -21 -24z"/>
<path d="M2187 705 c-17 -24 -17 -25 0 -26 13 -1 10 -3 -7 -9 -15 -5 -18 -8
-8 -9 9 -1 22 -3 30 -4 7 -2 11 -2 8 0 -3 2 -4 19 -2 38 5 41 3 42 -21 10z"/>
<path d="M1180 670 c-9 -6 -10 -10 -3 -10 6 0 15 5 18 10 8 12 4 12 -15 0z"/>
<path d="M2610 655 c-7 -9 -10 -18 -7 -21 3 -3 10 4 17 15 13 25 8 27 -10 6z"/>
<path d="M1408 632 c13 -17 28 -35 34 -39 7 -3 2 8 -10 25 -13 17 -28 35 -34
39 -7 3 -2 -8 10 -25z"/>
<path d="M545 604 c-99 -18 -221 -41 -272 -50 -51 -10 -90 -20 -88 -25 3 -4
-5 -5 -17 -1 -21 5 -22 4 -8 -14 14 -18 14 -18 -10 -3 -17 11 -32 14 -48 8
l-22 -8 21 -52 c23 -59 55 -109 71 -109 5 0 7 -7 4 -15 -4 -11 9 -25 44 -47
28 -17 50 -34 50 -38 0 -9 -73 -44 -110 -54 -14 -3 -2 4 26 18 28 13 54 28 57
33 3 5 -17 -2 -44 -15 -75 -37 -105 -34 -150 16 -20 23 -39 42 -43 42 -3 0 -6
-65 -6 -145 l0 -145 195 0 c163 0 195 2 195 14 0 8 35 38 77 65 88 58 90 68 2
16 l-58 -34 16 42 c23 60 51 84 104 92 43 6 47 5 72 -24 14 -17 36 -63 48
-101 l23 -70 128 0 c77 0 128 4 128 10 0 5 -24 34 -53 63 -30 29 -54 47 -54
40 0 -7 4 -13 9 -13 15 0 8 -15 -13 -28 -18 -11 -23 -11 -34 5 -7 10 -11 21
-9 25 3 5 -2 8 -12 8 -12 0 -15 6 -12 25 5 21 1 25 -20 25 -22 0 -23 -2 -11
-17 12 -15 12 -16 -4 -10 -10 4 -21 7 -23 7 -3 0 -3 4 0 9 4 5 -4 7 -16 3 -15
-4 -19 -2 -13 7 5 10 2 11 -13 7 -12 -4 -23 -2 -28 5 -5 9 -2 10 9 6 13 -5 17
-1 17 14 0 15 5 19 16 15 8 -3 12 -2 9 4 -3 6 -2 10 2 10 5 0 18 7 29 16 18
15 18 15 -3 5 -35 -18 -61 -13 -91 16 -15 16 -23 25 -18 20 17 -12 26 -8 19
11 -5 13 1 11 22 -8 l28 -25 -17 32 c-18 36 -21 63 -6 63 5 0 14 -8 20 -17 9
-16 10 -15 5 5 -5 16 -2 22 9 22 9 0 16 -4 16 -10 0 -5 7 -7 15 -4 9 4 15 0
15 -9 0 -10 7 -13 21 -10 11 3 18 11 15 19 -3 8 0 11 8 8 7 -3 23 -1 37 5 l24
9 -27 11 c-35 13 -148 17 -156 5 -4 -5 -14 -11 -22 -13 -8 -2 -24 -6 -35 -9
-17 -5 -17 -2 5 19 14 13 21 21 16 17 -17 -13 -86 -9 -116 7 -36 18 -60 62
-60 107 0 18 4 28 8 23 24 -35 67 -55 116 -55 54 0 103 19 99 38 -2 6 4 9 12
6 18 -7 19 0 3 29 -10 20 -10 21 5 9 12 -10 21 -11 37 -2 17 9 24 7 41 -12
l20 -23 -17 32 c-14 25 -21 30 -31 21 -10 -8 -17 -8 -25 0 -13 13 -7 22 17 26
9 1 20 7 23 13 4 6 18 13 32 16 19 3 16 4 -10 5 -19 0 -116 -15 -215 -34z
m-138 -56 c-3 -8 -6 -5 -6 6 -1 11 2 17 5 13 3 -3 4 -12 1 -19z m-177 -108
c-8 -5 -24 -9 -35 -9 -16 1 -16 2 5 9 35 11 48 11 30 0z m100 -85 c0 -5 -5 -3
-10 5 -5 8 -10 20 -10 25 0 6 5 3 10 -5 5 -8 10 -19 10 -25z m64 -23 c2 -4
-11 -6 -30 -4 -19 2 -34 6 -34 8 0 8 59 4 64 -4z m76 -114 c0 -6 -14 -8 -37
-3 -55 10 -60 21 -8 17 25 -2 45 -9 45 -14z m80 12 c0 -5 -12 -10 -27 -9 -25
0 -26 1 -8 9 27 12 35 12 35 0z m-160 -40 c0 -5 -4 -10 -10 -10 -5 0 -10 5
-10 10 0 6 5 10 10 10 6 0 10 -4 10 -10z m-66 -32 c-19 -21 -19 -21 4 -16 12
4 22 2 22 -3 0 -17 -30 -22 -63 -11 -27 8 -28 10 -9 11 15 1 26 9 29 21 3 11
12 20 21 20 12 0 12 -4 -4 -22z m441 -88 c10 -11 16 -20 13 -20 -3 0 -13 9
-23 20 -10 11 -16 20 -13 20 3 0 13 -9 23 -20z"/>
<path d="M2475 620 c-3 -5 1 -10 9 -10 9 0 16 5 16 10 0 6 -4 10 -9 10 -6 0
-13 -4 -16 -10z"/>
<path d="M2535 619 c4 -6 13 -8 21 -5 9 3 14 -1 14 -12 0 -9 9 -23 20 -30 18
-11 20 -10 20 17 0 24 -5 29 -31 35 -44 8 -51 8 -44 -5z"/>
<path d="M3060 618 c0 -4 5 -10 11 -14 6 -3 9 -19 7 -35 -6 -39 20 -48 48 -16
24 28 63 51 72 43 3 -3 1 -6 -4 -6 -5 0 -10 -9 -10 -20 0 -11 6 -20 13 -20 8
0 13 14 13 38 l0 37 -75 0 c-41 0 -75 -3 -75 -7z"/>
<path d="M2408 613 c6 -2 18 -2 25 0 6 3 1 5 -13 5 -14 0 -19 -2 -12 -5z"/>
<path d="M1206 601 c-6 -9 7 -22 34 -35 8 -4 4 1 -9 12 -18 15 -21 21 -10 25
8 3 9 6 2 6 -6 1 -14 -3 -17 -8z"/>
<path d="M1710 600 c-17 -11 -4 -40 21 -49 12 -4 12 -2 0 13 -12 14 -12 19 -2
26 7 4 9 10 4 13 -5 3 -15 2 -23 -3z"/>
<path d="M1127 567 c-6 -17 12 -27 48 -27 36 0 39 17 3 18 -17 0 -34 6 -38 12
-5 8 -9 7 -13 -3z"/>
<path d="M2495 556 c-12 -18 -14 -37 -9 -75 6 -46 9 -52 28 -49 18 3 22 12 26
63 l6 60 12 -45 12 -45 -6 45 c-4 40 -24 70 -46 70 -4 0 -15 -11 -23 -24z"/>
<path d="M1285 541 c6 -18 4 -22 -6 -15 -12 6 -12 5 -1 -8 11 -14 10 -17 -5
-21 -14 -4 -13 -5 5 -6 12 0 22 4 22 10 0 5 5 7 11 3 6 -3 3 6 -7 22 -25 40
-27 42 -19 15z"/>
<path d="M781 538 c-1 -18 45 -55 55 -45 3 3 -4 8 -16 12 -12 4 -25 16 -30 28
-7 17 -9 18 -9 5z"/>
<path d="M1238 543 c7 -3 16 -2 19 1 4 3 -2 6 -13 5 -11 0 -14 -3 -6 -6z"/>
<path d="M1899 539 c-6 -3 2 -8 18 -11 17 -2 30 0 30 7 0 12 -32 15 -48 4z"/>
<path d="M1276 471 c2 -2 -4 -10 -14 -18 -16 -14 -16 -14 3 -8 45 15 56 14 65
-8 5 -12 9 -18 9 -13 1 5 8 3 16 -4 21 -17 31 -5 12 14 -8 8 -17 12 -21 9 -3
-4 -6 1 -6 11 0 9 -4 14 -10 11 -5 -3 -10 -2 -10 3 0 6 -11 9 -24 8 -13 0 -23
-3 -20 -5z"/>
<path d="M2153 467 c-26 -12 -36 -47 -23 -81 11 -31 33 -33 58 -6 21 22 30
100 11 100 -6 0 -9 -7 -5 -15 3 -8 1 -15 -4 -15 -5 0 -10 6 -12 14 -2 10 -8
11 -25 3z"/>
<path d="M906 455 c4 -8 11 -15 16 -15 6 0 5 6 -2 15 -7 8 -14 15 -16 15 -2 0
-1 -7 2 -15z"/>
<path d="M997 432 c-20 -21 -37 -44 -37 -52 1 -11 3 -11 11 3 5 9 15 17 20 17
6 0 7 -6 3 -12 -4 -8 -3 -10 2 -5 5 5 9 14 9 20 1 7 7 11 14 9 9 -2 12 4 8 18
-4 16 0 20 21 20 21 0 24 2 12 10 -22 14 -22 14 -63 -28z"/>
<path d="M910 409 c0 -5 5 -7 10 -4 6 3 10 8 10 11 0 2 -4 4 -10 4 -5 0 -10
-5 -10 -11z"/>
<path d="M1375 390 c-3 -6 1 -7 9 -4 18 7 21 14 7 14 -6 0 -13 -4 -16 -10z"/>
<path d="M1355 360 c4 -6 11 -8 16 -5 14 9 11 15 -7 15 -8 0 -12 -5 -9 -10z"/>
<path d="M701 313 c7 -12 15 -20 18 -17 3 2 -3 12 -13 22 -17 16 -18 16 -5 -5z"/>
<path d="M1248 243 c6 -2 18 -2 25 0 6 3 1 5 -13 5 -14 0 -19 -2 -12 -5z"/>
<path d="M1516 234 c-9 -22 -8 -24 9 -24 8 0 15 6 15 14 0 22 -17 28 -24 10z"/>
<path d="M1535 203 c-18 -14 -18 -15 -2 -9 10 3 23 6 28 6 5 0 9 5 9 10 0 14
-12 12 -35 -7z"/>
<path d="M473 46 c-29 -17 -52 -34 -53 -38 0 -16 26 -7 50 15 14 12 36 30 50
40 41 28 9 17 -47 -17z"/>
<path d="M475 10 c-4 -6 19 -10 62 -9 47 0 62 3 48 9 -28 12 -103 12 -110 0z"/>
</g>
</svg>
