<svg id="Layer_1" enable-background="new 0 0 507.426 507.426" height="512" viewBox="0 0 507.426 507.426" width="512" xmlns="http://www.w3.org/2000/svg"><g><path d="m397.279 330.54-22.981 8.838-8.839 22.982 46.254 63.639 63.894 46.508 31.819-31.82z" fill="#4b5586"/><path d="m333.64 394.179 110.146 110.149 31.821-31.821-110.148-110.147-22.981 8.839z" fill="#293e65"/><path d="m83.033 16.294c-17.619-17.621-46.073-17.568-63.64-.001l158.987 178.337 165.866 146.517 25.362-6.457 6.457-25.362c-7.589-7.59-284.628-284.63-293.032-293.034z" fill="#25d9f8"/><path d="m19.393 16.294c-17.543 17.543-17.546 46.093 0 63.639l293.033 293.033 25.363-6.457 6.457-25.362z" fill="#00bdef"/><path d="m344.246 341.147 3.717 17.323 17.496 3.89 63.64-63.64-21.213-21.213z" fill="#293e65"/><path d="m278.033 368.573h90v30h-90z" fill="#0f2349" transform="matrix(.707 -.707 .707 .707 -176.613 340.763)"/><g><path d="m488.033 16.293c-17.544-17.544-46.094-17.546-63.64.001-8.507 8.507-285.738 285.737-293.033 293.033l6.457 25.362 25.362 6.457 168.308-154.165z" fill="#76dd00"/><path d="m110.147 330.54-110.147 110.147 31.82 31.82 62.145-48.003 48.002-62.144-8.838-22.981z" fill="#4b5586"/><path d="m173.787 394.179-8.839-22.98-22.981-8.839-110.147 110.147 31.82 31.82z" fill="#293e65"/><path d="m488.033 79.933c17.62-17.618 17.568-46.072 0-63.64-9.215 9.216-316.111 316.112-324.854 324.854l6.458 25.362 25.363 6.457c7.59-7.59 284.629-284.629 293.033-293.033z" fill="#00c200"/><path d="m99.54 277.507-21.213 21.213 63.64 63.64 17.678-3.535 3.535-17.678z" fill="#293e65"/><path d="m169.394 338.573h29.999v90h-29.999z" fill="#0f2349" transform="matrix(.707 -.707 .707 .707 -217.219 242.731)"/></g></g></svg>