<?xml version="1.0" standalone="no"?>
<!DOCTYPE svg PUBLIC "-//W3C//DTD SVG 20010904//EN"
 "http://www.w3.org/TR/2001/REC-SVG-20010904/DTD/svg10.dtd">
<svg version="1.0" xmlns="http://www.w3.org/2000/svg"
 width="400.000000pt" height="400.000000pt" viewBox="0 0 450.000000 300.000000"
 preserveAspectRatio="xMidYMid meet">

<g transform="translate(0.000000,400.000000) scale(0.100000,-0.100000)"
fill="#ff9900" stroke="none">
<path d="M363 3620 c-170 -25 -321 -170 -353 -339 -14 -72 -14 -1370 0 -1442
33 -173 182 -314 362 -339 84 -13 4292 -13 4376 0 180 25 329 166 362 339 14
72 14 1370 0 1442 -33 173 -182 314 -362 339 -76 11 -4310 11 -4385 0z m4449
-245 c23 -17 54 -51 68 -75 l25 -45 0 -695 0 -695 -25 -45 c-14 -24 -45 -58
-68 -75 l-44 -30 -2208 0 -2208 0 -44 30 c-23 17 -54 51 -68 75 l-25 45 0 695
0 695 22 42 c23 43 69 84 113 102 16 6 792 9 2222 8 l2196 -2 44 -30z"/>
<path d="M934 2983 c-12 -2 -34 -17 -49 -33 -26 -27 -29 -38 -33 -114 l-4 -85
-77 40 c-70 36 -79 38 -113 29 -48 -14 -78 -52 -78 -100 0 -49 26 -81 100
-122 33 -18 60 -35 60 -38 0 -3 -27 -20 -60 -38 -74 -41 -100 -73 -100 -122 0
-47 29 -85 76 -100 34 -12 41 -10 114 28 l78 41 4 -85 c4 -79 7 -87 35 -116
44 -43 102 -43 146 0 28 29 31 37 35 116 l4 85 78 -41 c73 -38 80 -40 114 -28
47 15 76 53 76 100 0 49 -26 81 -100 122 -33 18 -60 35 -60 38 0 3 27 20 60
38 74 41 100 73 100 122 0 48 -30 86 -78 100 -34 9 -43 7 -113 -29 l-77 -40
-4 85 c-4 78 -7 87 -34 113 -30 30 -63 41 -100 34z"/>
<path d="M2010 2983 c-68 -19 -90 -59 -90 -163 0 -38 -3 -70 -6 -70 -4 0 -34
17 -67 37 -69 42 -114 46 -156 16 -39 -29 -52 -63 -41 -103 12 -43 33 -64 97
-101 29 -17 53 -34 53 -39 0 -5 -24 -22 -53 -39 -64 -37 -85 -58 -97 -101 -7
-25 -6 -41 6 -65 32 -68 102 -76 192 -21 33 20 62 36 66 36 3 0 6 -31 6 -69 0
-37 5 -82 11 -99 24 -69 116 -87 170 -33 28 28 29 34 29 115 0 47 2 86 4 86 2
0 40 -19 84 -41 75 -39 81 -41 116 -29 23 7 45 24 57 44 40 66 16 120 -76 173
-36 20 -65 40 -65 43 0 3 29 23 65 43 89 52 114 102 80 167 -33 63 -95 69
-188 17 -36 -21 -68 -37 -71 -37 -3 0 -6 38 -6 84 0 74 -3 88 -22 111 -24 26
-72 45 -98 38z"/>
<path d="M3063 2978 c-56 -15 -73 -49 -73 -144 0 -46 -3 -84 -6 -84 -3 0 -35
16 -71 37 -93 52 -155 46 -188 -17 -34 -65 -9 -115 80 -167 36 -20 65 -40 65
-43 0 -3 -29 -23 -65 -43 -92 -53 -116 -107 -76 -173 12 -20 34 -37 57 -44 35
-12 41 -10 116 29 44 22 82 41 84 41 2 0 4 -39 4 -86 0 -81 1 -87 29 -115 54
-54 146 -36 170 33 6 17 11 62 11 99 0 38 3 69 6 69 4 0 33 -16 66 -36 90 -55
160 -47 192 21 12 24 13 40 6 65 -12 43 -33 64 -97 101 -29 17 -53 34 -53 39
0 5 24 22 53 39 64 37 85 58 97 101 11 40 -2 74 -41 103 -42 30 -87 26 -156
-16 -33 -20 -63 -37 -67 -37 -3 0 -6 31 -6 69 0 37 -5 82 -11 99 -17 50 -69
75 -126 60z"/>
<path d="M4134 2983 c-12 -2 -34 -17 -49 -33 -26 -27 -29 -38 -33 -114 l-4
-85 -77 40 c-70 36 -79 38 -113 29 -48 -14 -78 -52 -78 -100 0 -49 26 -81 100
-122 33 -18 60 -35 60 -38 0 -3 -27 -20 -60 -38 -74 -41 -100 -73 -100 -122 0
-47 29 -85 76 -100 34 -12 41 -10 114 28 l78 41 4 -85 c4 -79 7 -87 35 -116
44 -43 102 -43 146 0 28 29 31 37 35 116 l4 85 78 -41 c73 -38 80 -40 114 -28
47 15 76 53 76 100 0 49 -26 81 -100 122 -33 18 -60 35 -60 38 0 3 27 20 60
38 74 41 100 73 100 122 0 48 -30 86 -78 100 -34 9 -43 7 -113 -29 l-77 -40
-4 85 c-4 78 -7 87 -34 113 -30 30 -63 41 -100 34z"/>
</g>
</svg>
